<?xml version="1.0" encoding="UTF-8" standalone="no"?><svg xmlns="http://www.w3.org/2000/svg" xmlns:xlink="http://www.w3.org/1999/xlink" clip-rule="evenodd" stroke-miterlimit="4.00" viewBox="0 0 1024 768"><desc>SVG generated by Keynote</desc><defs></defs><g transform="matrix(1.00, 0.00, -0.00, -1.00, 0.0, 768.0)"><path d="M 0.0 768.0 L 1024.0 768.0 L 1024.0 0.0 L 0.0 0.0 Z M 0.0 768.0 " fill="#333333"></path><text xml:space="preserve" font-family="AmericanTypewriter" font-size="24.0" fill="#FEFFFE" transform="matrix(1.00, 0.00, -0.00, -1.00, 477.0, 241.0)">–</text><text xml:space="preserve" font-family="AmericanTypewriter" font-size="24.0" fill="#FEFFFE" transform="matrix(1.00, 0.00, -0.00, -1.00, 489.0, 241.0)">M</text><text xml:space="preserve" font-family="AmericanTypewriter" font-size="24.0" fill="#FEFFFE" transform="matrix(1.00, 0.00, -0.00, -1.00, 511.7, 241.0)">a</text><text xml:space="preserve" font-family="AmericanTypewriter" font-size="24.0" fill="#FEFFFE" transform="matrix(1.00, 0.00, -0.00, -1.00, 525.3, 241.0)">t</text><text xml:space="preserve" font-family="AmericanTypewriter" font-size="24.0" fill="#FEFFFE" transform="matrix(1.00, 0.00, -0.00, -1.00, 534.9, 241.0)">z</text><text xml:space="preserve" font-family="HelveticaNeue-Thin" font-size="38.0" fill="#FEFFFF" transform="matrix(1.00, 0.00, -0.00, -1.00, 119.0, 390.0)">“</text><text xml:space="preserve" font-family="HelveticaNeue-Thin" font-size="38.0" fill="#FEFFFF" transform="matrix(1.00, 0.00, -0.00, -1.00, 131.0, 390.0)">n</text><text xml:space="preserve" font-family="HelveticaNeue-Thin" font-size="38.0" fill="#FEFFFF" transform="matrix(1.00, 0.00, -0.00, -1.00, 150.7, 390.0)">o</text><text xml:space="preserve" font-family="HelveticaNeue-Thin" font-size="38.0" fill="#FEFFFF" transform="matrix(1.00, 0.00, -0.00, -1.00, 171.1, 390.0)"> </text><text xml:space="preserve" font-family="HelveticaNeue-Thin" font-size="38.0" fill="#FEFFFF" transform="matrix(1.00, 0.00, -0.00, -1.00, 181.7, 390.0)">o</text><text xml:space="preserve" font-family="HelveticaNeue-Thin" font-size="38.0" fill="#FEFFFF" transform="matrix(1.00, 0.00, -0.00, -1.00, 202.1, 390.0)">n</text><text xml:space="preserve" font-family="HelveticaNeue-Thin" font-size="38.0" fill="#FEFFFF" transform="matrix(1.00, 0.00, -0.00, -1.00, 221.8, 390.0)">e</text><text xml:space="preserve" font-family="HelveticaNeue-Thin" font-size="38.0" fill="#FEFFFF" transform="matrix(1.00, 0.00, -0.00, -1.00, 241.5, 390.0)"> </text><text xml:space="preserve" font-family="HelveticaNeue-Thin" font-size="38.0" fill="#FEFFFF" transform="matrix(1.00, 0.00, -0.00, -1.00, 252.1, 390.0)">w</text><text xml:space="preserve" font-family="HelveticaNeue-Thin" font-size="38.0" fill="#FEFFFF" transform="matrix(1.00, 0.00, -0.00, -1.00, 278.8, 390.0)">a</text><text xml:space="preserve" font-family="HelveticaNeue-Thin" font-size="38.0" fill="#FEFFFF" transform="matrix(1.00, 0.00, -0.00, -1.00, 297.8, 390.0)">n</text><text xml:space="preserve" font-family="HelveticaNeue-Thin" font-size="38.0" fill="#FEFFFF" transform="matrix(1.00, 0.00, -0.00, -1.00, 317.6, 390.0)">t</text><text xml:space="preserve" font-family="HelveticaNeue-Thin" font-size="38.0" fill="#FEFFFF" transform="matrix(1.00, 0.00, -0.00, -1.00, 327.4, 390.0)">s</text><text xml:space="preserve" font-family="HelveticaNeue-Thin" font-size="38.0" fill="#FEFFFF" transform="matrix(1.00, 0.00, -0.00, -1.00, 345.7, 390.0)"> </text><text xml:space="preserve" font-family="HelveticaNeue-Thin" font-size="38.0" fill="#FEFFFF" transform="matrix(1.00, 0.00, -0.00, -1.00, 356.2, 390.0)">t</text><text xml:space="preserve" font-family="HelveticaNeue-Thin" font-size="38.0" fill="#FEFFFF" transform="matrix(1.00, 0.00, -0.00, -1.00, 365.5, 390.0)">o</text><text xml:space="preserve" font-family="HelveticaNeue-Thin" font-size="38.0" fill="#FEFFFF" transform="matrix(1.00, 0.00, -0.00, -1.00, 385.9, 390.0)"> </text><text xml:space="preserve" font-family="HelveticaNeue-Thin" font-size="38.0" fill="#FEFFFF" transform="matrix(1.00, 0.00, -0.00, -1.00, 396.5, 390.0)">p</text><text xml:space="preserve" font-family="HelveticaNeue-Thin" font-size="38.0" fill="#FEFFFF" transform="matrix(1.00, 0.00, -0.00, -1.00, 417.6, 390.0)">r</text><text xml:space="preserve" font-family="HelveticaNeue-Thin" font-size="38.0" fill="#FEFFFF" transform="matrix(1.00, 0.00, -0.00, -1.00, 427.8, 390.0)">o</text><text xml:space="preserve" font-family="HelveticaNeue-Thin" font-size="38.0" fill="#FEFFFF" transform="matrix(1.00, 0.00, -0.00, -1.00, 448.2, 390.0)">g</text><text xml:space="preserve" font-family="HelveticaNeue-Thin" font-size="38.0" fill="#FEFFFF" transform="matrix(1.00, 0.00, -0.00, -1.00, 468.6, 390.0)">r</text><text xml:space="preserve" font-family="HelveticaNeue-Thin" font-size="38.0" fill="#FEFFFF" transform="matrix(1.00, 0.00, -0.00, -1.00, 478.4, 390.0)">a</text><text xml:space="preserve" font-family="HelveticaNeue-Thin" font-size="38.0" fill="#FEFFFF" transform="matrix(1.00, 0.00, -0.00, -1.00, 497.4, 390.0)">m</text><text xml:space="preserve" font-family="HelveticaNeue-Thin" font-size="38.0" fill="#FEFFFF" transform="matrix(1.00, 0.00, -0.00, -1.00, 527.6, 390.0)"> </text><text xml:space="preserve" font-family="HelveticaNeue-Thin" font-size="38.0" fill="#FEFFFF" transform="matrix(1.00, 0.00, -0.00, -1.00, 538.2, 390.0)">i</text><text xml:space="preserve" font-family="HelveticaNeue-Thin" font-size="38.0" fill="#FEFFFF" transform="matrix(1.00, 0.00, -0.00, -1.00, 544.6, 390.0)">n</text><text xml:space="preserve" font-family="HelveticaNeue-Thin" font-size="38.0" fill="#FEFFFF" transform="matrix(1.00, 0.00, -0.00, -1.00, 564.3, 390.0)"> </text><text xml:space="preserve" font-family="HelveticaNeue-Thin" font-size="38.0" fill="#FEFFFF" transform="matrix(1.00, 0.00, -0.00, -1.00, 574.8, 390.0)">a</text><text xml:space="preserve" font-family="HelveticaNeue-Thin" font-size="38.0" fill="#FEFFFF" transform="matrix(1.00, 0.00, -0.00, -1.00, 593.8, 390.0)">s</text><text xml:space="preserve" font-family="HelveticaNeue-Thin" font-size="38.0" fill="#FEFFFF" transform="matrix(1.00, 0.00, -0.00, -1.00, 612.1, 390.0)">s</text><text xml:space="preserve" font-family="HelveticaNeue-Thin" font-size="38.0" fill="#FEFFFF" transform="matrix(1.00, 0.00, -0.00, -1.00, 630.4, 390.0)">e</text><text xml:space="preserve" font-family="HelveticaNeue-Thin" font-size="38.0" fill="#FEFFFF" transform="matrix(1.00, 0.00, -0.00, -1.00, 650.1, 390.0)">m</text><text xml:space="preserve" font-family="HelveticaNeue-Thin" font-size="38.0" fill="#FEFFFF" transform="matrix(1.00, 0.00, -0.00, -1.00, 680.4, 390.0)">b</text><text xml:space="preserve" font-family="HelveticaNeue-Thin" font-size="38.0" fill="#FEFFFF" transform="matrix(1.00, 0.00, -0.00, -1.00, 701.5, 390.0)">l</text><text xml:space="preserve" font-family="HelveticaNeue-Thin" font-size="38.0" fill="#FEFFFF" transform="matrix(1.00, 0.00, -0.00, -1.00, 707.9, 390.0)">e</text><text xml:space="preserve" font-family="HelveticaNeue-Thin" font-size="38.0" fill="#FEFFFF" transform="matrix(1.00, 0.00, -0.00, -1.00, 727.6, 390.0)">r</text><text xml:space="preserve" font-family="HelveticaNeue-Thin" font-size="38.0" fill="#FEFFFF" transform="matrix(1.00, 0.00, -0.00, -1.00, 738.2, 390.0)"> </text><text xml:space="preserve" font-family="HelveticaNeue-Thin" font-size="38.0" fill="#FEFFFF" transform="matrix(1.00, 0.00, -0.00, -1.00, 748.7, 390.0)">a</text><text xml:space="preserve" font-family="HelveticaNeue-Thin" font-size="38.0" fill="#FEFFFF" transform="matrix(1.00, 0.00, -0.00, -1.00, 767.7, 390.0)">n</text><text xml:space="preserve" font-family="HelveticaNeue-Thin" font-size="38.0" fill="#FEFFFF" transform="matrix(1.00, 0.00, -0.00, -1.00, 787.5, 390.0)">y</text><text xml:space="preserve" font-family="HelveticaNeue-Thin" font-size="38.0" fill="#FEFFFF" transform="matrix(1.00, 0.00, -0.00, -1.00, 804.3, 390.0)">m</text><text xml:space="preserve" font-family="HelveticaNeue-Thin" font-size="38.0" fill="#FEFFFF" transform="matrix(1.00, 0.00, -0.00, -1.00, 834.6, 390.0)">o</text><text xml:space="preserve" font-family="HelveticaNeue-Thin" font-size="38.0" fill="#FEFFFF" transform="matrix(1.00, 0.00, -0.00, -1.00, 855.0, 390.0)">r</text><text xml:space="preserve" font-family="HelveticaNeue-Thin" font-size="38.0" fill="#FEFFFF" transform="matrix(1.00, 0.00, -0.00, -1.00, 865.1, 390.0)">e</text><text xml:space="preserve" font-family="HelveticaNeue-Thin" font-size="38.0" fill="#FEFFFF" transform="matrix(1.00, 0.00, -0.00, -1.00, 884.8, 390.0)">.</text><text xml:space="preserve" font-family="HelveticaNeue-Thin" font-size="38.0" fill="#FEFFFF" transform="matrix(1.00, 0.00, -0.00, -1.00, 892.6, 390.0)">”</text></g></svg>