<?xml version="1.0" encoding="UTF-8" standalone="no"?><svg xmlns="http://www.w3.org/2000/svg" xmlns:xlink="http://www.w3.org/1999/xlink" clip-rule="evenodd" stroke-miterlimit="4.00" viewBox="0 0 1024 768"><desc>SVG generated by Keynote</desc><defs></defs><g transform="matrix(1.00, 0.00, -0.00, -1.00, 0.0, 768.0)"><path d="M 0.0 768.0 L 1024.0 768.0 L 1024.0 0.0 L 0.0 0.0 Z M 0.0 768.0 " fill="#7ADA45"></path><text xml:space="preserve" font-family="HelveticaNeue-Bold" font-weight="bold" font-size="180.0" fill="#FEFFFF" transform="matrix(1.00, 0.00, -0.00, -1.00, 311.0, 341.0)">1</text><text xml:space="preserve" font-family="HelveticaNeue-Bold" font-weight="bold" font-size="180.0" fill="#FEFFFF" transform="matrix(1.00, 0.00, -0.00, -1.00, 403.9, 341.0)">0</text><text xml:space="preserve" font-family="HelveticaNeue-Bold" font-weight="bold" font-size="180.0" fill="#FEFFFF" transform="matrix(1.00, 0.00, -0.00, -1.00, 496.8, 341.0)">0</text><text xml:space="preserve" font-family="HelveticaNeue-Bold" font-weight="bold" font-size="180.0" fill="#FEFFFF" transform="matrix(1.00, 0.00, -0.00, -1.00, 589.6, 341.0)">K</text><text xml:space="preserve" font-family="HelveticaNeue-Thin" font-size="64.0" fill="#FEFFFF" transform="matrix(1.00, 0.00, -0.00, -1.00, 157.0, 271.0)">d</text><text xml:space="preserve" font-family="HelveticaNeue-Thin" font-size="64.0" fill="#FEFFFF" transform="matrix(1.00, 0.00, -0.00, -1.00, 192.6, 271.0)">o</text><text xml:space="preserve" font-family="HelveticaNeue-Thin" font-size="64.0" fill="#FEFFFF" transform="matrix(1.00, 0.00, -0.00, -1.00, 227.0, 271.0)">w</text><text xml:space="preserve" font-family="HelveticaNeue-Thin" font-size="64.0" fill="#FEFFFF" transform="matrix(1.00, 0.00, -0.00, -1.00, 272.0, 271.0)">n</text><text xml:space="preserve" font-family="HelveticaNeue-Thin" font-size="64.0" fill="#FEFFFF" transform="matrix(1.00, 0.00, -0.00, -1.00, 305.2, 271.0)">l</text><text xml:space="preserve" font-family="HelveticaNeue-Thin" font-size="64.0" fill="#FEFFFF" transform="matrix(1.00, 0.00, -0.00, -1.00, 316.0, 271.0)">o</text><text xml:space="preserve" font-family="HelveticaNeue-Thin" font-size="64.0" fill="#FEFFFF" transform="matrix(1.00, 0.00, -0.00, -1.00, 350.3, 271.0)">a</text><text xml:space="preserve" font-family="HelveticaNeue-Thin" font-size="64.0" fill="#FEFFFF" transform="matrix(1.00, 0.00, -0.00, -1.00, 382.3, 271.0)">d</text><text xml:space="preserve" font-family="HelveticaNeue-Thin" font-size="64.0" fill="#FEFFFF" transform="matrix(1.00, 0.00, -0.00, -1.00, 417.9, 271.0)">s</text><text xml:space="preserve" font-family="HelveticaNeue-Thin" font-size="64.0" fill="#FEFFFF" transform="matrix(1.00, 0.00, -0.00, -1.00, 448.7, 271.0)"> </text><text xml:space="preserve" font-family="HelveticaNeue-Thin" font-size="64.0" fill="#FEFFFF" transform="matrix(1.00, 0.00, -0.00, -1.00, 466.5, 271.0)">f</text><text xml:space="preserve" font-family="HelveticaNeue-Thin" font-size="64.0" fill="#FEFFFF" transform="matrix(1.00, 0.00, -0.00, -1.00, 481.9, 271.0)">r</text><text xml:space="preserve" font-family="HelveticaNeue-Thin" font-size="64.0" fill="#FEFFFF" transform="matrix(1.00, 0.00, -0.00, -1.00, 499.0, 271.0)">o</text><text xml:space="preserve" font-family="HelveticaNeue-Thin" font-size="64.0" fill="#FEFFFF" transform="matrix(1.00, 0.00, -0.00, -1.00, 533.3, 271.0)">m</text><text xml:space="preserve" font-family="HelveticaNeue-Thin" font-size="64.0" fill="#FEFFFF" transform="matrix(1.00, 0.00, -0.00, -1.00, 584.3, 271.0)"> </text><text xml:space="preserve" font-family="HelveticaNeue-Thin" font-size="64.0" fill="#FEFFFF" transform="matrix(1.00, 0.00, -0.00, -1.00, 602.1, 271.0)">r</text><text xml:space="preserve" font-family="HelveticaNeue-Thin" font-size="64.0" fill="#FEFFFF" transform="matrix(1.00, 0.00, -0.00, -1.00, 619.8, 271.0)">u</text><text xml:space="preserve" font-family="HelveticaNeue-Thin" font-size="64.0" fill="#FEFFFF" transform="matrix(1.00, 0.00, -0.00, -1.00, 653.1, 271.0)">b</text><text xml:space="preserve" font-family="HelveticaNeue-Thin" font-size="64.0" fill="#FEFFFF" transform="matrix(1.00, 0.00, -0.00, -1.00, 688.6, 271.0)">y</text><text xml:space="preserve" font-family="HelveticaNeue-Thin" font-size="64.0" fill="#FEFFFF" transform="matrix(1.00, 0.00, -0.00, -1.00, 717.1, 271.0)">g</text><text xml:space="preserve" font-family="HelveticaNeue-Thin" font-size="64.0" fill="#FEFFFF" transform="matrix(1.00, 0.00, -0.00, -1.00, 751.4, 271.0)">e</text><text xml:space="preserve" font-family="HelveticaNeue-Thin" font-size="64.0" fill="#FEFFFF" transform="matrix(1.00, 0.00, -0.00, -1.00, 784.6, 271.0)">m</text><text xml:space="preserve" font-family="HelveticaNeue-Thin" font-size="64.0" fill="#FEFFFF" transform="matrix(1.00, 0.00, -0.00, -1.00, 835.6, 271.0)">s</text></g></svg>