<?xml version="1.0" encoding="UTF-8" standalone="no"?><svg xmlns="http://www.w3.org/2000/svg" xmlns:xlink="http://www.w3.org/1999/xlink" clip-rule="evenodd" stroke-miterlimit="4.00" viewBox="0 0 1024 768"><desc>SVG generated by Keynote</desc><defs></defs><g transform="matrix(1.00, 0.00, -0.00, -1.00, 0.0, 768.0)"><path d="M 0.0 768.0 L 1024.0 768.0 L 1024.0 0.0 L 0.0 0.0 Z M 0.0 768.0 " fill="#0065C0"></path><text xml:space="preserve" font-family="HelveticaNeue-Bold" font-weight="bold" font-size="80.0" fill="#FEFFFF" transform="matrix(1.00, 0.00, -0.00, -1.00, 329.0, 633.0)">I</text><text xml:space="preserve" font-family="HelveticaNeue-Bold" font-weight="bold" font-size="80.0" fill="#FEFFFF" transform="matrix(1.00, 0.00, -0.00, -1.00, 349.4, 633.0)">T</text><text xml:space="preserve" font-family="HelveticaNeue-Bold" font-weight="bold" font-size="80.0" fill="#FEFFFF" transform="matrix(1.00, 0.00, -0.00, -1.00, 395.1, 633.0)">’</text><text xml:space="preserve" font-family="HelveticaNeue-Bold" font-weight="bold" font-size="80.0" fill="#FEFFFF" transform="matrix(1.00, 0.00, -0.00, -1.00, 414.1, 633.0)">S</text><text xml:space="preserve" font-family="HelveticaNeue-Bold" font-weight="bold" font-size="80.0" fill="#FEFFFF" transform="matrix(1.00, 0.00, -0.00, -1.00, 462.8, 633.0)"> </text><text xml:space="preserve" font-family="HelveticaNeue-Bold" font-weight="bold" font-size="80.0" fill="#FEFFFF" transform="matrix(1.00, 0.00, -0.00, -1.00, 481.9, 633.0)">R</text><text xml:space="preserve" font-family="HelveticaNeue-Bold" font-weight="bold" font-size="80.0" fill="#FEFFFF" transform="matrix(1.00, 0.00, -0.00, -1.00, 536.4, 633.0)">U</text><text xml:space="preserve" font-family="HelveticaNeue-Bold" font-weight="bold" font-size="80.0" fill="#FEFFFF" transform="matrix(1.00, 0.00, -0.00, -1.00, 592.5, 633.0)">B</text><text xml:space="preserve" font-family="HelveticaNeue-Bold" font-weight="bold" font-size="80.0" fill="#FEFFFF" transform="matrix(1.00, 0.00, -0.00, -1.00, 645.6, 633.0)">Y</text><text xml:space="preserve" font-family="HelveticaNeue-Thin" font-size="39.9" fill="#FEFFFF" transform="matrix(1.00, 0.00, -0.00, -1.00, 253.0, 522.0)">M</text><text xml:space="preserve" font-family="HelveticaNeue-Thin" font-size="39.9" fill="#FEFFFF" transform="matrix(1.00, 0.00, -0.00, -1.00, 285.3, 522.0)">E</text><text xml:space="preserve" font-family="HelveticaNeue-Thin" font-size="39.9" fill="#FEFFFF" transform="matrix(1.00, 0.00, -0.00, -1.00, 307.6, 522.0)">T</text><text xml:space="preserve" font-family="HelveticaNeue-Thin" font-size="39.9" fill="#FEFFFF" transform="matrix(1.00, 0.00, -0.00, -1.00, 328.3, 522.0)">H</text><text xml:space="preserve" font-family="HelveticaNeue-Thin" font-size="39.9" fill="#FEFFFF" transform="matrix(1.00, 0.00, -0.00, -1.00, 355.1, 522.0)">O</text><text xml:space="preserve" font-family="HelveticaNeue-Thin" font-size="39.9" fill="#FEFFFF" transform="matrix(1.00, 0.00, -0.00, -1.00, 384.6, 522.0)">D</text><text xml:space="preserve" font-family="HelveticaNeue-Thin" font-size="39.9" fill="#FEFFFF" transform="matrix(1.00, 0.00, -0.00, -1.00, 411.2, 522.0)"> </text><text xml:space="preserve" font-family="HelveticaNeue-Thin" font-size="39.9" fill="#FEFFFF" transform="matrix(1.00, 0.00, -0.00, -1.00, 422.3, 522.0)">M</text><text xml:space="preserve" font-family="HelveticaNeue-Thin" font-size="39.9" fill="#FEFFFF" transform="matrix(1.00, 0.00, -0.00, -1.00, 454.6, 522.0)">I</text><text xml:space="preserve" font-family="HelveticaNeue-Thin" font-size="39.9" fill="#FEFFFF" transform="matrix(1.00, 0.00, -0.00, -1.00, 461.4, 522.0)">S</text><text xml:space="preserve" font-family="HelveticaNeue-Thin" font-size="39.9" fill="#FEFFFF" transform="matrix(1.00, 0.00, -0.00, -1.00, 486.5, 522.0)">S</text><text xml:space="preserve" font-family="HelveticaNeue-Thin" font-size="39.9" fill="#FEFFFF" transform="matrix(1.00, 0.00, -0.00, -1.00, 511.7, 522.0)">I</text><text xml:space="preserve" font-family="HelveticaNeue-Thin" font-size="39.9" fill="#FEFFFF" transform="matrix(1.00, 0.00, -0.00, -1.00, 518.5, 522.0)">N</text><text xml:space="preserve" font-family="HelveticaNeue-Thin" font-size="39.9" fill="#FEFFFF" transform="matrix(1.00, 0.00, -0.00, -1.00, 545.5, 522.0)">G</text><text xml:space="preserve" font-family="HelveticaNeue-Thin" font-size="39.9" fill="#FEFFFF" transform="matrix(1.00, 0.00, -0.00, -1.00, 575.1, 522.0)"> </text><text xml:space="preserve" font-family="HelveticaNeue-Thin" font-size="39.9" fill="#FEFFFF" transform="matrix(1.00, 0.00, -0.00, -1.00, 586.2, 522.0)">&amp;</text><text xml:space="preserve" font-family="HelveticaNeue-Thin" font-size="39.9" fill="#FEFFFF" transform="matrix(1.00, 0.00, -0.00, -1.00, 609.8, 522.0)"> </text><text xml:space="preserve" font-family="HelveticaNeue-Thin" font-size="39.9" fill="#FEFFFF" transform="matrix(1.00, 0.00, -0.00, -1.00, 620.9, 522.0)">B</text><text xml:space="preserve" font-family="HelveticaNeue-Thin" font-size="39.9" fill="#FEFFFF" transform="matrix(1.00, 0.00, -0.00, -1.00, 646.1, 522.0)">L</text><text xml:space="preserve" font-family="HelveticaNeue-Thin" font-size="39.9" fill="#FEFFFF" transform="matrix(1.00, 0.00, -0.00, -1.00, 664.6, 522.0)">O</text><text xml:space="preserve" font-family="HelveticaNeue-Thin" font-size="39.9" fill="#FEFFFF" transform="matrix(1.00, 0.00, -0.00, -1.00, 694.1, 522.0)">C</text><text xml:space="preserve" font-family="HelveticaNeue-Thin" font-size="39.9" fill="#FEFFFF" transform="matrix(1.00, 0.00, -0.00, -1.00, 722.2, 522.0)">K</text><text xml:space="preserve" font-family="HelveticaNeue-Thin" font-size="39.9" fill="#FEFFFF" transform="matrix(1.00, 0.00, -0.00, -1.00, 746.7, 522.0)">S</text><text xml:space="preserve" font-family="HelveticaNeue-Thin" font-size="39.9" fill="#FEFFFF" transform="matrix(1.00, 0.00, -0.00, -1.00, 771.8, 522.0)"> </text><text xml:space="preserve" font-family="HelveticaNeue-Thin" font-size="39.9" fill="#FEFFFF" transform="matrix(1.00, 0.00, -0.00, -1.00, 312.0, 434.0)">R</text><text xml:space="preserve" font-family="HelveticaNeue-Thin" font-size="39.9" fill="#FEFFFF" transform="matrix(1.00, 0.00, -0.00, -1.00, 337.1, 434.0)">E</text><text xml:space="preserve" font-family="HelveticaNeue-Thin" font-size="39.9" fill="#FEFFFF" transform="matrix(1.00, 0.00, -0.00, -1.00, 359.5, 434.0)">Q</text><text xml:space="preserve" font-family="HelveticaNeue-Thin" font-size="39.9" fill="#FEFFFF" transform="matrix(1.00, 0.00, -0.00, -1.00, 389.0, 434.0)">U</text><text xml:space="preserve" font-family="HelveticaNeue-Thin" font-size="39.9" fill="#FEFFFF" transform="matrix(1.00, 0.00, -0.00, -1.00, 415.9, 434.0)">I</text><text xml:space="preserve" font-family="HelveticaNeue-Thin" font-size="39.9" fill="#FEFFFF" transform="matrix(1.00, 0.00, -0.00, -1.00, 422.6, 434.0)">R</text><text xml:space="preserve" font-family="HelveticaNeue-Thin" font-size="39.9" fill="#FEFFFF" transform="matrix(1.00, 0.00, -0.00, -1.00, 447.8, 434.0)">E</text><text xml:space="preserve" font-family="HelveticaNeue-Thin" font-size="39.9" fill="#FEFFFF" transform="matrix(1.00, 0.00, -0.00, -1.00, 470.1, 434.0)"> </text><text xml:space="preserve" font-family="HelveticaNeue-Thin" font-size="39.9" fill="#FEFFFF" transform="matrix(1.00, 0.00, -0.00, -1.00, 481.2, 434.0)">&amp;</text><text xml:space="preserve" font-family="HelveticaNeue-Thin" font-size="39.9" fill="#FEFFFF" transform="matrix(1.00, 0.00, -0.00, -1.00, 504.9, 434.0)"> </text><text xml:space="preserve" font-family="HelveticaNeue-Thin" font-size="39.9" fill="#FEFFFF" transform="matrix(1.00, 0.00, -0.00, -1.00, 516.0, 434.0)">A</text><text xml:space="preserve" font-family="HelveticaNeue-Thin" font-size="39.9" fill="#FEFFFF" transform="matrix(1.00, 0.00, -0.00, -1.00, 539.2, 434.0)">U</text><text xml:space="preserve" font-family="HelveticaNeue-Thin" font-size="39.9" fill="#FEFFFF" transform="matrix(1.00, 0.00, -0.00, -1.00, 566.0, 434.0)">T</text><text xml:space="preserve" font-family="HelveticaNeue-Thin" font-size="39.9" fill="#FEFFFF" transform="matrix(1.00, 0.00, -0.00, -1.00, 585.0, 434.0)">O</text><text xml:space="preserve" font-family="HelveticaNeue-Thin" font-size="39.9" fill="#FEFFFF" transform="matrix(1.00, 0.00, -0.00, -1.00, 614.6, 434.0)">L</text><text xml:space="preserve" font-family="HelveticaNeue-Thin" font-size="39.9" fill="#FEFFFF" transform="matrix(1.00, 0.00, -0.00, -1.00, 633.1, 434.0)">O</text><text xml:space="preserve" font-family="HelveticaNeue-Thin" font-size="39.9" fill="#FEFFFF" transform="matrix(1.00, 0.00, -0.00, -1.00, 661.9, 434.0)">A</text><text xml:space="preserve" font-family="HelveticaNeue-Thin" font-size="39.9" fill="#FEFFFF" transform="matrix(1.00, 0.00, -0.00, -1.00, 685.6, 434.0)">D</text><text xml:space="preserve" font-family="HelveticaNeue-Thin" font-size="39.9" fill="#FEFFFF" transform="matrix(1.00, 0.00, -0.00, -1.00, 712.2, 434.0)"> </text><text xml:space="preserve" font-family="HelveticaNeue-Thin" font-size="39.9" fill="#FEFFFF" transform="matrix(1.00, 0.00, -0.00, -1.00, 235.0, 346.0)">C</text><text xml:space="preserve" font-family="HelveticaNeue-Thin" font-size="39.9" fill="#FEFFFF" transform="matrix(1.00, 0.00, -0.00, -1.00, 263.1, 346.0)">L</text><text xml:space="preserve" font-family="HelveticaNeue-Thin" font-size="39.9" fill="#FEFFFF" transform="matrix(1.00, 0.00, -0.00, -1.00, 283.0, 346.0)">A</text><text xml:space="preserve" font-family="HelveticaNeue-Thin" font-size="39.9" fill="#FEFFFF" transform="matrix(1.00, 0.00, -0.00, -1.00, 306.7, 346.0)">S</text><text xml:space="preserve" font-family="HelveticaNeue-Thin" font-size="39.9" fill="#FEFFFF" transform="matrix(1.00, 0.00, -0.00, -1.00, 331.8, 346.0)">S</text><text xml:space="preserve" font-family="HelveticaNeue-Thin" font-size="39.9" fill="#FEFFFF" transform="matrix(1.00, 0.00, -0.00, -1.00, 357.0, 346.0)">E</text><text xml:space="preserve" font-family="HelveticaNeue-Thin" font-size="39.9" fill="#FEFFFF" transform="matrix(1.00, 0.00, -0.00, -1.00, 379.3, 346.0)">S</text><text xml:space="preserve" font-family="HelveticaNeue-Thin" font-size="39.9" fill="#FEFFFF" transform="matrix(1.00, 0.00, -0.00, -1.00, 404.5, 346.0)"> </text><text xml:space="preserve" font-family="HelveticaNeue-Thin" font-size="39.9" fill="#FEFFFF" transform="matrix(1.00, 0.00, -0.00, -1.00, 415.5, 346.0)">&amp;</text><text xml:space="preserve" font-family="HelveticaNeue-Thin" font-size="39.9" fill="#FEFFFF" transform="matrix(1.00, 0.00, -0.00, -1.00, 439.2, 346.0)"> </text><text xml:space="preserve" font-family="HelveticaNeue-Thin" font-size="39.9" fill="#FEFFFF" transform="matrix(1.00, 0.00, -0.00, -1.00, 450.3, 346.0)">S</text><text xml:space="preserve" font-family="HelveticaNeue-Thin" font-size="39.9" fill="#FEFFFF" transform="matrix(1.00, 0.00, -0.00, -1.00, 475.4, 346.0)">I</text><text xml:space="preserve" font-family="HelveticaNeue-Thin" font-size="39.9" fill="#FEFFFF" transform="matrix(1.00, 0.00, -0.00, -1.00, 482.2, 346.0)">N</text><text xml:space="preserve" font-family="HelveticaNeue-Thin" font-size="39.9" fill="#FEFFFF" transform="matrix(1.00, 0.00, -0.00, -1.00, 509.3, 346.0)">G</text><text xml:space="preserve" font-family="HelveticaNeue-Thin" font-size="39.9" fill="#FEFFFF" transform="matrix(1.00, 0.00, -0.00, -1.00, 538.8, 346.0)">L</text><text xml:space="preserve" font-family="HelveticaNeue-Thin" font-size="39.9" fill="#FEFFFF" transform="matrix(1.00, 0.00, -0.00, -1.00, 558.8, 346.0)">E</text><text xml:space="preserve" font-family="HelveticaNeue-Thin" font-size="39.9" fill="#FEFFFF" transform="matrix(1.00, 0.00, -0.00, -1.00, 581.1, 346.0)">T</text><text xml:space="preserve" font-family="HelveticaNeue-Thin" font-size="39.9" fill="#FEFFFF" transform="matrix(1.00, 0.00, -0.00, -1.00, 600.2, 346.0)">O</text><text xml:space="preserve" font-family="HelveticaNeue-Thin" font-size="39.9" fill="#FEFFFF" transform="matrix(1.00, 0.00, -0.00, -1.00, 629.7, 346.0)">N</text><text xml:space="preserve" font-family="HelveticaNeue-Thin" font-size="39.9" fill="#FEFFFF" transform="matrix(1.00, 0.00, -0.00, -1.00, 656.8, 346.0)"> </text><text xml:space="preserve" font-family="HelveticaNeue-Thin" font-size="39.9" fill="#FEFFFF" transform="matrix(1.00, 0.00, -0.00, -1.00, 667.9, 346.0)">C</text><text xml:space="preserve" font-family="HelveticaNeue-Thin" font-size="39.9" fill="#FEFFFF" transform="matrix(1.00, 0.00, -0.00, -1.00, 696.0, 346.0)">L</text><text xml:space="preserve" font-family="HelveticaNeue-Thin" font-size="39.9" fill="#FEFFFF" transform="matrix(1.00, 0.00, -0.00, -1.00, 715.9, 346.0)">A</text><text xml:space="preserve" font-family="HelveticaNeue-Thin" font-size="39.9" fill="#FEFFFF" transform="matrix(1.00, 0.00, -0.00, -1.00, 739.6, 346.0)">S</text><text xml:space="preserve" font-family="HelveticaNeue-Thin" font-size="39.9" fill="#FEFFFF" transform="matrix(1.00, 0.00, -0.00, -1.00, 764.7, 346.0)">S</text><text xml:space="preserve" font-family="HelveticaNeue-Thin" font-size="39.9" fill="#FEFFFF" transform="matrix(1.00, 0.00, -0.00, -1.00, 789.8, 346.0)"> </text><text xml:space="preserve" font-family="HelveticaNeue-Thin" font-size="39.9" fill="#FEFFFF" transform="matrix(1.00, 0.00, -0.00, -1.00, 338.0, 258.0)">M</text><text xml:space="preserve" font-family="HelveticaNeue-Thin" font-size="39.9" fill="#FEFFFF" transform="matrix(1.00, 0.00, -0.00, -1.00, 370.3, 258.0)">O</text><text xml:space="preserve" font-family="HelveticaNeue-Thin" font-size="39.9" fill="#FEFFFF" transform="matrix(1.00, 0.00, -0.00, -1.00, 399.8, 258.0)">D</text><text xml:space="preserve" font-family="HelveticaNeue-Thin" font-size="39.9" fill="#FEFFFF" transform="matrix(1.00, 0.00, -0.00, -1.00, 426.5, 258.0)">U</text><text xml:space="preserve" font-family="HelveticaNeue-Thin" font-size="39.9" fill="#FEFFFF" transform="matrix(1.00, 0.00, -0.00, -1.00, 453.3, 258.0)">L</text><text xml:space="preserve" font-family="HelveticaNeue-Thin" font-size="39.9" fill="#FEFFFF" transform="matrix(1.00, 0.00, -0.00, -1.00, 473.2, 258.0)">E</text><text xml:space="preserve" font-family="HelveticaNeue-Thin" font-size="39.9" fill="#FEFFFF" transform="matrix(1.00, 0.00, -0.00, -1.00, 495.6, 258.0)">S</text><text xml:space="preserve" font-family="HelveticaNeue-Thin" font-size="39.9" fill="#FEFFFF" transform="matrix(1.00, 0.00, -0.00, -1.00, 520.7, 258.0)"> </text><text xml:space="preserve" font-family="HelveticaNeue-Thin" font-size="39.9" fill="#FEFFFF" transform="matrix(1.00, 0.00, -0.00, -1.00, 531.8, 258.0)">&amp;</text><text xml:space="preserve" font-family="HelveticaNeue-Thin" font-size="39.9" fill="#FEFFFF" transform="matrix(1.00, 0.00, -0.00, -1.00, 555.5, 258.0)"> </text><text xml:space="preserve" font-family="HelveticaNeue-Thin" font-size="39.9" fill="#FEFFFF" transform="matrix(1.00, 0.00, -0.00, -1.00, 566.5, 258.0)">M</text><text xml:space="preserve" font-family="HelveticaNeue-Thin" font-size="39.9" fill="#FEFFFF" transform="matrix(1.00, 0.00, -0.00, -1.00, 598.8, 258.0)">I</text><text xml:space="preserve" font-family="HelveticaNeue-Thin" font-size="39.9" fill="#FEFFFF" transform="matrix(1.00, 0.00, -0.00, -1.00, 605.6, 258.0)">X</text><text xml:space="preserve" font-family="HelveticaNeue-Thin" font-size="39.9" fill="#FEFFFF" transform="matrix(1.00, 0.00, -0.00, -1.00, 627.8, 258.0)">I</text><text xml:space="preserve" font-family="HelveticaNeue-Thin" font-size="39.9" fill="#FEFFFF" transform="matrix(1.00, 0.00, -0.00, -1.00, 634.6, 258.0)">N</text><text xml:space="preserve" font-family="HelveticaNeue-Thin" font-size="39.9" fill="#FEFFFF" transform="matrix(1.00, 0.00, -0.00, -1.00, 661.6, 258.0)">S</text><text xml:space="preserve" font-family="HelveticaNeue-Thin" font-size="39.9" fill="#FEFFFF" transform="matrix(1.00, 0.00, -0.00, -1.00, 686.8, 258.0)"> </text><text xml:space="preserve" font-family="HelveticaNeue-Thin" font-size="39.9" fill="#FEFFFF" transform="matrix(1.00, 0.00, -0.00, -1.00, 293.0, 170.0)">E</text><text xml:space="preserve" font-family="HelveticaNeue-Thin" font-size="39.9" fill="#FEFFFF" transform="matrix(1.00, 0.00, -0.00, -1.00, 315.3, 170.0)">N</text><text xml:space="preserve" font-family="HelveticaNeue-Thin" font-size="39.9" fill="#FEFFFF" transform="matrix(1.00, 0.00, -0.00, -1.00, 342.4, 170.0)">U</text><text xml:space="preserve" font-family="HelveticaNeue-Thin" font-size="39.9" fill="#FEFFFF" transform="matrix(1.00, 0.00, -0.00, -1.00, 369.2, 170.0)">M</text><text xml:space="preserve" font-family="HelveticaNeue-Thin" font-size="39.9" fill="#FEFFFF" transform="matrix(1.00, 0.00, -0.00, -1.00, 401.5, 170.0)">E</text><text xml:space="preserve" font-family="HelveticaNeue-Thin" font-size="39.9" fill="#FEFFFF" transform="matrix(1.00, 0.00, -0.00, -1.00, 423.8, 170.0)">R</text><text xml:space="preserve" font-family="HelveticaNeue-Thin" font-size="39.9" fill="#FEFFFF" transform="matrix(1.00, 0.00, -0.00, -1.00, 449.0, 170.0)">A</text><text xml:space="preserve" font-family="HelveticaNeue-Thin" font-size="39.9" fill="#FEFFFF" transform="matrix(1.00, 0.00, -0.00, -1.00, 472.6, 170.0)">B</text><text xml:space="preserve" font-family="HelveticaNeue-Thin" font-size="39.9" fill="#FEFFFF" transform="matrix(1.00, 0.00, -0.00, -1.00, 497.8, 170.0)">L</text><text xml:space="preserve" font-family="HelveticaNeue-Thin" font-size="39.9" fill="#FEFFFF" transform="matrix(1.00, 0.00, -0.00, -1.00, 517.7, 170.0)">E</text><text xml:space="preserve" font-family="HelveticaNeue-Thin" font-size="39.9" fill="#FEFFFF" transform="matrix(1.00, 0.00, -0.00, -1.00, 540.1, 170.0)"> </text><text xml:space="preserve" font-family="HelveticaNeue-Thin" font-size="39.9" fill="#FEFFFF" transform="matrix(1.00, 0.00, -0.00, -1.00, 551.2, 170.0)">&amp;</text><text xml:space="preserve" font-family="HelveticaNeue-Thin" font-size="39.9" fill="#FEFFFF" transform="matrix(1.00, 0.00, -0.00, -1.00, 574.8, 170.0)"> </text><text xml:space="preserve" font-family="HelveticaNeue-Thin" font-size="39.9" fill="#FEFFFF" transform="matrix(1.00, 0.00, -0.00, -1.00, 585.9, 170.0)">S</text><text xml:space="preserve" font-family="HelveticaNeue-Thin" font-size="39.9" fill="#FEFFFF" transform="matrix(1.00, 0.00, -0.00, -1.00, 610.2, 170.0)">T</text><text xml:space="preserve" font-family="HelveticaNeue-Thin" font-size="39.9" fill="#FEFFFF" transform="matrix(1.00, 0.00, -0.00, -1.00, 630.9, 170.0)">R</text><text xml:space="preserve" font-family="HelveticaNeue-Thin" font-size="39.9" fill="#FEFFFF" transform="matrix(1.00, 0.00, -0.00, -1.00, 656.0, 170.0)">U</text><text xml:space="preserve" font-family="HelveticaNeue-Thin" font-size="39.9" fill="#FEFFFF" transform="matrix(1.00, 0.00, -0.00, -1.00, 682.8, 170.0)">C</text><text xml:space="preserve" font-family="HelveticaNeue-Thin" font-size="39.9" fill="#FEFFFF" transform="matrix(1.00, 0.00, -0.00, -1.00, 710.0, 170.0)">T</text><text xml:space="preserve" font-family="HelveticaNeue-Thin" font-size="39.9" fill="#FEFFFF" transform="matrix(1.00, 0.00, -0.00, -1.00, 730.7, 170.0)"> </text><text xml:space="preserve" font-family="HelveticaNeue-Thin" font-size="39.9" fill="#FEFFFF" transform="matrix(1.00, 0.00, -0.00, -1.00, 408.0, 82.0)">(</text><text xml:space="preserve" font-family="HelveticaNeue-Thin" font-size="39.9" fill="#FEFFFF" transform="matrix(1.00, 0.00, -0.00, -1.00, 417.6, 82.0)">m</text><text xml:space="preserve" font-family="HelveticaNeue-Thin" font-size="39.9" fill="#FEFFFF" transform="matrix(1.00, 0.00, -0.00, -1.00, 449.4, 82.0)">u</text><text xml:space="preserve" font-family="HelveticaNeue-Thin" font-size="39.9" fill="#FEFFFF" transform="matrix(1.00, 0.00, -0.00, -1.00, 470.1, 82.0)">c</text><text xml:space="preserve" font-family="HelveticaNeue-Thin" font-size="39.9" fill="#FEFFFF" transform="matrix(1.00, 0.00, -0.00, -1.00, 490.8, 82.0)">h</text><text xml:space="preserve" font-family="HelveticaNeue-Thin" font-size="39.9" fill="#FEFFFF" transform="matrix(1.00, 0.00, -0.00, -1.00, 511.5, 82.0)"> </text><text xml:space="preserve" font-family="HelveticaNeue-Thin" font-size="39.9" fill="#FEFFFF" transform="matrix(1.00, 0.00, -0.00, -1.00, 522.6, 82.0)">m</text><text xml:space="preserve" font-family="HelveticaNeue-Thin" font-size="39.9" fill="#FEFFFF" transform="matrix(1.00, 0.00, -0.00, -1.00, 554.4, 82.0)">o</text><text xml:space="preserve" font-family="HelveticaNeue-Thin" font-size="39.9" fill="#FEFFFF" transform="matrix(1.00, 0.00, -0.00, -1.00, 575.8, 82.0)">r</text><text xml:space="preserve" font-family="HelveticaNeue-Thin" font-size="39.9" fill="#FEFFFF" transform="matrix(1.00, 0.00, -0.00, -1.00, 586.4, 82.0)">e</text><text xml:space="preserve" font-family="HelveticaNeue-Thin" font-size="39.9" fill="#FEFFFF" transform="matrix(1.00, 0.00, -0.00, -1.00, 607.1, 82.0)">)</text></g></svg>