<?xml version="1.0" encoding="UTF-8" standalone="no"?><svg xmlns="http://www.w3.org/2000/svg" xmlns:xlink="http://www.w3.org/1999/xlink" clip-rule="evenodd" stroke-miterlimit="4.00" viewBox="0 0 1024 768"><desc>SVG generated by Keynote</desc><defs></defs><g transform="matrix(1.00, 0.00, -0.00, -1.00, 0.0, 768.0)"><path d="M 0.0 768.0 L 1024.0 768.0 L 1024.0 0.0 L 0.0 0.0 Z M 0.0 768.0 " fill="#8952A8"></path><text xml:space="preserve" font-family="HelveticaNeue-Bold" font-weight="bold" font-size="80.0" fill="#FEFFFF" transform="matrix(1.00, 0.00, -0.00, -1.00, 135.0, 401.0)">a</text><text xml:space="preserve" font-family="HelveticaNeue-Bold" font-weight="bold" font-size="80.0" fill="#FEFFFF" transform="matrix(1.00, 0.00, -0.00, -1.00, 177.7, 401.0)"> </text><text xml:space="preserve" font-family="HelveticaNeue-Bold" font-weight="bold" font-size="80.0" fill="#FEFFFF" transform="matrix(1.00, 0.00, -0.00, -1.00, 196.8, 401.0)">p</text><text xml:space="preserve" font-family="HelveticaNeue-Bold" font-weight="bold" font-size="80.0" fill="#FEFFFF" transform="matrix(1.00, 0.00, -0.00, -1.00, 242.4, 401.0)">r</text><text xml:space="preserve" font-family="HelveticaNeue-Bold" font-weight="bold" font-size="80.0" fill="#FEFFFF" transform="matrix(1.00, 0.00, -0.00, -1.00, 270.4, 401.0)">a</text><text xml:space="preserve" font-family="HelveticaNeue-Bold" font-weight="bold" font-size="80.0" fill="#FEFFFF" transform="matrix(1.00, 0.00, -0.00, -1.00, 313.1, 401.0)">g</text><text xml:space="preserve" font-family="HelveticaNeue-Bold" font-weight="bold" font-size="80.0" fill="#FEFFFF" transform="matrix(1.00, 0.00, -0.00, -1.00, 358.8, 401.0)">m</text><text xml:space="preserve" font-family="HelveticaNeue-Bold" font-weight="bold" font-size="80.0" fill="#FEFFFF" transform="matrix(1.00, 0.00, -0.00, -1.00, 428.0, 401.0)">a</text><text xml:space="preserve" font-family="HelveticaNeue-Bold" font-weight="bold" font-size="80.0" fill="#FEFFFF" transform="matrix(1.00, 0.00, -0.00, -1.00, 470.8, 401.0)">t</text><text xml:space="preserve" font-family="HelveticaNeue-Bold" font-weight="bold" font-size="80.0" fill="#FEFFFF" transform="matrix(1.00, 0.00, -0.00, -1.00, 495.7, 401.0)">i</text><text xml:space="preserve" font-family="HelveticaNeue-Bold" font-weight="bold" font-size="80.0" fill="#FEFFFF" transform="matrix(1.00, 0.00, -0.00, -1.00, 513.2, 401.0)">c</text><text xml:space="preserve" font-family="HelveticaNeue-Bold" font-weight="bold" font-size="80.0" fill="#FEFFFF" transform="matrix(1.00, 0.00, -0.00, -1.00, 555.9, 401.0)"> </text><text xml:space="preserve" font-family="HelveticaNeue-Bold" font-weight="bold" font-size="80.0" fill="#FEFFFF" transform="matrix(1.00, 0.00, -0.00, -1.00, 574.9, 401.0)">u</text><text xml:space="preserve" font-family="HelveticaNeue-Bold" font-weight="bold" font-size="80.0" fill="#FEFFFF" transform="matrix(1.00, 0.00, -0.00, -1.00, 619.2, 401.0)">s</text><text xml:space="preserve" font-family="HelveticaNeue-Bold" font-weight="bold" font-size="80.0" fill="#FEFFFF" transform="matrix(1.00, 0.00, -0.00, -1.00, 658.9, 401.0)">e</text><text xml:space="preserve" font-family="HelveticaNeue-Bold" font-weight="bold" font-size="80.0" fill="#FEFFFF" transform="matrix(1.00, 0.00, -0.00, -1.00, 701.6, 401.0)"> </text><text xml:space="preserve" font-family="HelveticaNeue-Bold" font-weight="bold" font-size="80.0" fill="#FEFFFF" transform="matrix(1.00, 0.00, -0.00, -1.00, 720.7, 401.0)">c</text><text xml:space="preserve" font-family="HelveticaNeue-Bold" font-weight="bold" font-size="80.0" fill="#FEFFFF" transform="matrix(1.00, 0.00, -0.00, -1.00, 763.4, 401.0)">a</text><text xml:space="preserve" font-family="HelveticaNeue-Bold" font-weight="bold" font-size="80.0" fill="#FEFFFF" transform="matrix(1.00, 0.00, -0.00, -1.00, 806.1, 401.0)">s</text><text xml:space="preserve" font-family="HelveticaNeue-Bold" font-weight="bold" font-size="80.0" fill="#FEFFFF" transform="matrix(1.00, 0.00, -0.00, -1.00, 845.9, 401.0)">e</text><text xml:space="preserve" font-family="HelveticaNeue-Thin" font-size="32.0" fill="#FEFFFF" transform="matrix(1.00, 0.00, -0.00, -1.00, 321.0, 337.0)">ﬂ</text><text xml:space="preserve" font-family="HelveticaNeue-Thin" font-size="32.0" fill="#FEFFFF" transform="matrix(1.00, 0.00, -0.00, -1.00, 333.4, 337.0)">e</text><text xml:space="preserve" font-family="HelveticaNeue-Thin" font-size="32.0" fill="#FEFFFF" transform="matrix(1.00, 0.00, -0.00, -1.00, 349.7, 337.0)">x</text><text xml:space="preserve" font-family="HelveticaNeue-Thin" font-size="32.0" fill="#FEFFFF" transform="matrix(1.00, 0.00, -0.00, -1.00, 363.9, 337.0)">i</text><text xml:space="preserve" font-family="HelveticaNeue-Thin" font-size="32.0" fill="#FEFFFF" transform="matrix(1.00, 0.00, -0.00, -1.00, 369.3, 337.0)">b</text><text xml:space="preserve" font-family="HelveticaNeue-Thin" font-size="32.0" fill="#FEFFFF" transform="matrix(1.00, 0.00, -0.00, -1.00, 387.0, 337.0)">l</text><text xml:space="preserve" font-family="HelveticaNeue-Thin" font-size="32.0" fill="#FEFFFF" transform="matrix(1.00, 0.00, -0.00, -1.00, 392.4, 337.0)">e</text><text xml:space="preserve" font-family="HelveticaNeue-Thin" font-size="32.0" fill="#FEFFFF" transform="matrix(1.00, 0.00, -0.00, -1.00, 409.0, 337.0)"> </text><text xml:space="preserve" font-family="HelveticaNeue-Thin" font-size="32.0" fill="#FEFFFF" transform="matrix(1.00, 0.00, -0.00, -1.00, 417.9, 337.0)">a</text><text xml:space="preserve" font-family="HelveticaNeue-Thin" font-size="32.0" fill="#FEFFFF" transform="matrix(1.00, 0.00, -0.00, -1.00, 433.9, 337.0)">d</text><text xml:space="preserve" font-family="HelveticaNeue-Thin" font-size="32.0" fill="#FEFFFF" transform="matrix(1.00, 0.00, -0.00, -1.00, 451.7, 337.0)">m</text><text xml:space="preserve" font-family="HelveticaNeue-Thin" font-size="32.0" fill="#FEFFFF" transform="matrix(1.00, 0.00, -0.00, -1.00, 477.2, 337.0)">i</text><text xml:space="preserve" font-family="HelveticaNeue-Thin" font-size="32.0" fill="#FEFFFF" transform="matrix(1.00, 0.00, -0.00, -1.00, 482.6, 337.0)">n</text><text xml:space="preserve" font-family="HelveticaNeue-Thin" font-size="32.0" fill="#FEFFFF" transform="matrix(1.00, 0.00, -0.00, -1.00, 499.2, 337.0)"> </text><text xml:space="preserve" font-family="HelveticaNeue-Thin" font-size="32.0" fill="#FEFFFF" transform="matrix(1.00, 0.00, -0.00, -1.00, 508.1, 337.0)">u</text><text xml:space="preserve" font-family="HelveticaNeue-Thin" font-size="32.0" fill="#FEFFFF" transform="matrix(1.00, 0.00, -0.00, -1.00, 524.7, 337.0)">s</text><text xml:space="preserve" font-family="HelveticaNeue-Thin" font-size="32.0" fill="#FEFFFF" transform="matrix(1.00, 0.00, -0.00, -1.00, 540.1, 337.0)">e</text><text xml:space="preserve" font-family="HelveticaNeue-Thin" font-size="32.0" fill="#FEFFFF" transform="matrix(1.00, 0.00, -0.00, -1.00, 556.7, 337.0)">r</text><text xml:space="preserve" font-family="HelveticaNeue-Thin" font-size="32.0" fill="#FEFFFF" transform="matrix(1.00, 0.00, -0.00, -1.00, 565.6, 337.0)"> </text><text xml:space="preserve" font-family="HelveticaNeue-Thin" font-size="32.0" fill="#FEFFFF" transform="matrix(1.00, 0.00, -0.00, -1.00, 574.5, 337.0)">i</text><text xml:space="preserve" font-family="HelveticaNeue-Thin" font-size="32.0" fill="#FEFFFF" transform="matrix(1.00, 0.00, -0.00, -1.00, 579.8, 337.0)">n</text><text xml:space="preserve" font-family="HelveticaNeue-Thin" font-size="32.0" fill="#FEFFFF" transform="matrix(1.00, 0.00, -0.00, -1.00, 596.5, 337.0)">t</text><text xml:space="preserve" font-family="HelveticaNeue-Thin" font-size="32.0" fill="#FEFFFF" transform="matrix(1.00, 0.00, -0.00, -1.00, 604.3, 337.0)">e</text><text xml:space="preserve" font-family="HelveticaNeue-Thin" font-size="32.0" fill="#FEFFFF" transform="matrix(1.00, 0.00, -0.00, -1.00, 620.9, 337.0)">r</text><text xml:space="preserve" font-family="HelveticaNeue-Thin" font-size="32.0" fill="#FEFFFF" transform="matrix(1.00, 0.00, -0.00, -1.00, 630.6, 337.0)">f</text><text xml:space="preserve" font-family="HelveticaNeue-Thin" font-size="32.0" fill="#FEFFFF" transform="matrix(1.00, 0.00, -0.00, -1.00, 638.3, 337.0)">a</text><text xml:space="preserve" font-family="HelveticaNeue-Thin" font-size="32.0" fill="#FEFFFF" transform="matrix(1.00, 0.00, -0.00, -1.00, 654.3, 337.0)">c</text><text xml:space="preserve" font-family="HelveticaNeue-Thin" font-size="32.0" fill="#FEFFFF" transform="matrix(1.00, 0.00, -0.00, -1.00, 671.0, 337.0)">e</text><text xml:space="preserve" font-family="HelveticaNeue-Thin" font-size="32.0" fill="#FEFFFF" transform="matrix(1.00, 0.00, -0.00, -1.00, 687.6, 337.0)">s</text><path d="M 436.9 660.5 L 495.4 660.5 L 495.4 602.0 L 436.9 602.0 Z M 436.9 660.5 " fill="#E7A432"></path><path d="M 85.3 501.9 L 201.3 501.9 L 201.3 472.3 L 85.3 472.3 Z M 85.3 501.9 " fill="#7ADA45"></path><g><clipPath id="clip-35"><path d="M 281.2 658.3 L 342.9 658.3 L 342.9 690.6 L 281.2 690.6 Z M 281.2 658.3 "></path></clipPath><g clip-path="url(#clip-35)"><path d="M 282.2 689.6 L 341.9 689.6 L 341.9 659.3 L 282.2 659.3 Z M 282.2 689.6 " fill="#1497FC"></path></g></g><g><clipPath id="clip-36"><path d="M 251.9 628.8 L 313.6 628.8 L 313.6 661.1 L 251.9 661.1 Z M 251.9 628.8 "></path></clipPath><g clip-path="url(#clip-36)"><path d="M 252.9 660.1 L 312.6 660.1 L 312.6 629.8 L 252.9 629.8 Z M 252.9 660.1 " fill="#1497FC"></path></g></g><g><clipPath id="clip-37"><path d="M 188.5 631.0 L 128.0 631.0 L 128.0 662.6 L 188.5 662.6 Z M 188.5 631.0 "></path></clipPath><g clip-path="url(#clip-37)"><path d="M 187.5 632.0 L 129.0 632.0 L 129.0 661.6 L 187.5 661.6 Z M 187.5 632.0 " fill="#D35854"></path></g></g><g><clipPath id="clip-38"><path d="M 216.8 691.5 L 216.8 631.0 L 185.2 631.0 L 185.2 691.5 Z M 216.8 691.5 "></path></clipPath><g clip-path="url(#clip-38)"><path d="M 215.8 690.5 L 215.8 632.0 L 186.2 632.0 L 186.2 690.5 Z M 215.8 690.5 " fill="#D35854"></path></g></g></g></svg>