<?xml version="1.0" encoding="UTF-8" standalone="no"?><svg xmlns="http://www.w3.org/2000/svg" xmlns:xlink="http://www.w3.org/1999/xlink" clip-rule="evenodd" stroke-miterlimit="4.00" viewBox="0 0 1024 768"><desc>SVG generated by Keynote</desc><defs></defs><g transform="matrix(1.00, 0.00, -0.00, -1.00, 0.0, 768.0)"><path d="M 0.0 768.0 L 1024.0 768.0 L 1024.0 0.0 L 0.0 0.0 Z M 0.0 768.0 " fill="#7ADA45"></path><text xml:space="preserve" font-family="HelveticaNeue-Bold" font-weight="bold" font-size="180.0" fill="#FEFFFF" transform="matrix(1.00, 0.00, -0.00, -1.00, 358.0, 341.0)">1</text><text xml:space="preserve" font-family="HelveticaNeue-Bold" font-weight="bold" font-size="180.0" fill="#FEFFFF" transform="matrix(1.00, 0.00, -0.00, -1.00, 450.9, 341.0)">0</text><text xml:space="preserve" font-family="HelveticaNeue-Bold" font-weight="bold" font-size="180.0" fill="#FEFFFF" transform="matrix(1.00, 0.00, -0.00, -1.00, 543.8, 341.0)">K</text><text xml:space="preserve" font-family="HelveticaNeue-Thin" font-size="64.0" fill="#FEFFFF" transform="matrix(1.00, 0.00, -0.00, -1.00, 131.0, 271.0)">p</text><text xml:space="preserve" font-family="HelveticaNeue-Thin" font-size="64.0" fill="#FEFFFF" transform="matrix(1.00, 0.00, -0.00, -1.00, 166.6, 271.0)">a</text><text xml:space="preserve" font-family="HelveticaNeue-Thin" font-size="64.0" fill="#FEFFFF" transform="matrix(1.00, 0.00, -0.00, -1.00, 198.6, 271.0)">s</text><text xml:space="preserve" font-family="HelveticaNeue-Thin" font-size="64.0" fill="#FEFFFF" transform="matrix(1.00, 0.00, -0.00, -1.00, 229.4, 271.0)">s</text><text xml:space="preserve" font-family="HelveticaNeue-Thin" font-size="64.0" fill="#FEFFFF" transform="matrix(1.00, 0.00, -0.00, -1.00, 260.2, 271.0)">i</text><text xml:space="preserve" font-family="HelveticaNeue-Thin" font-size="64.0" fill="#FEFFFF" transform="matrix(1.00, 0.00, -0.00, -1.00, 270.9, 271.0)">n</text><text xml:space="preserve" font-family="HelveticaNeue-Thin" font-size="64.0" fill="#FEFFFF" transform="matrix(1.00, 0.00, -0.00, -1.00, 304.1, 271.0)">g</text><text xml:space="preserve" font-family="HelveticaNeue-Thin" font-size="64.0" fill="#FEFFFF" transform="matrix(1.00, 0.00, -0.00, -1.00, 338.5, 271.0)"> </text><text xml:space="preserve" font-family="HelveticaNeue-Thin" font-size="64.0" fill="#FEFFFF" transform="matrix(1.00, 0.00, -0.00, -1.00, 356.3, 271.0)">r</text><text xml:space="preserve" font-family="HelveticaNeue-Thin" font-size="64.0" fill="#FEFFFF" transform="matrix(1.00, 0.00, -0.00, -1.00, 374.1, 271.0)">u</text><text xml:space="preserve" font-family="HelveticaNeue-Thin" font-size="64.0" fill="#FEFFFF" transform="matrix(1.00, 0.00, -0.00, -1.00, 407.3, 271.0)">b</text><text xml:space="preserve" font-family="HelveticaNeue-Thin" font-size="64.0" fill="#FEFFFF" transform="matrix(1.00, 0.00, -0.00, -1.00, 442.9, 271.0)">y</text><text xml:space="preserve" font-family="HelveticaNeue-Thin" font-size="64.0" fill="#FEFFFF" transform="matrix(1.00, 0.00, -0.00, -1.00, 471.3, 271.0)"> </text><text xml:space="preserve" font-family="HelveticaNeue-Thin" font-size="64.0" fill="#FEFFFF" transform="matrix(1.00, 0.00, -0.00, -1.00, 489.1, 271.0)">s</text><text xml:space="preserve" font-family="HelveticaNeue-Thin" font-size="64.0" fill="#FEFFFF" transform="matrix(1.00, 0.00, -0.00, -1.00, 519.9, 271.0)">p</text><text xml:space="preserve" font-family="HelveticaNeue-Thin" font-size="64.0" fill="#FEFFFF" transform="matrix(1.00, 0.00, -0.00, -1.00, 555.4, 271.0)">e</text><text xml:space="preserve" font-family="HelveticaNeue-Thin" font-size="64.0" fill="#FEFFFF" transform="matrix(1.00, 0.00, -0.00, -1.00, 588.7, 271.0)">c</text><text xml:space="preserve" font-family="HelveticaNeue-Thin" font-size="64.0" fill="#FEFFFF" transform="matrix(1.00, 0.00, -0.00, -1.00, 621.9, 271.0)"> </text><text xml:space="preserve" font-family="HelveticaNeue-Thin" font-size="64.0" fill="#FEFFFF" transform="matrix(1.00, 0.00, -0.00, -1.00, 639.7, 271.0)">e</text><text xml:space="preserve" font-family="HelveticaNeue-Thin" font-size="64.0" fill="#FEFFFF" transform="matrix(1.00, 0.00, -0.00, -1.00, 672.1, 271.0)">x</text><text xml:space="preserve" font-family="HelveticaNeue-Thin" font-size="64.0" fill="#FEFFFF" transform="matrix(1.00, 0.00, -0.00, -1.00, 700.5, 271.0)">a</text><text xml:space="preserve" font-family="HelveticaNeue-Thin" font-size="64.0" fill="#FEFFFF" transform="matrix(1.00, 0.00, -0.00, -1.00, 732.5, 271.0)">m</text><text xml:space="preserve" font-family="HelveticaNeue-Thin" font-size="64.0" fill="#FEFFFF" transform="matrix(1.00, 0.00, -0.00, -1.00, 783.5, 271.0)">p</text><text xml:space="preserve" font-family="HelveticaNeue-Thin" font-size="64.0" fill="#FEFFFF" transform="matrix(1.00, 0.00, -0.00, -1.00, 819.1, 271.0)">l</text><text xml:space="preserve" font-family="HelveticaNeue-Thin" font-size="64.0" fill="#FEFFFF" transform="matrix(1.00, 0.00, -0.00, -1.00, 829.8, 271.0)">e</text><text xml:space="preserve" font-family="HelveticaNeue-Thin" font-size="64.0" fill="#FEFFFF" transform="matrix(1.00, 0.00, -0.00, -1.00, 863.0, 271.0)">s</text><path d="M 560.5 372.6 C 564.4 371.3 569.6 368.9 568.4 363.0 C 567.3 357.0 561.5 353.9 555.5 355.9 C 549.4 357.8 552.2 360.4 538.2 365.0 C 533.0 366.7 536.2 377.2 541.4 375.5 C 553.8 371.4 553.1 374.9 560.5 372.6 C 560.5 372.6 560.5 372.6 560.5 372.6 Z M 352.6 434.1 C 345.9 437.2 344.4 441.0 346.7 446.4 C 349.1 452.0 354.0 452.8 359.9 450.1 C 365.9 447.4 364.2 444.5 374.3 440.0 C 379.8 437.7 374.4 428.0 369.9 429.9 C 359.1 434.8 359.4 431.0 352.6 434.1 C 352.6 434.1 352.6 434.1 352.6 434.1 Z M 541.1 375.7 C 544.7 374.4 541.3 363.9 537.0 365.3 C 532.5 366.8 523.3 372.0 520.7 372.7 C 518.0 373.4 510.3 373.8 508.0 374.6 C 505.8 375.4 496.1 382.3 491.2 383.1 C 486.3 383.8 485.2 384.8 482.0 385.9 C 478.9 387.1 474.1 389.5 471.3 390.9 C 468.4 392.2 464.7 390.5 461.1 392.7 C 457.5 394.9 455.0 394.7 452.3 395.7 C 448.1 397.3 452.3 407.5 456.3 405.9 C 460.1 404.5 462.9 404.2 466.1 402.7 C 469.3 401.3 471.7 399.1 475.2 399.0 C 478.7 399.0 484.3 395.6 487.8 393.5 C 491.3 391.5 495.6 390.3 498.8 389.7 C 505.1 388.4 518.8 381.4 521.2 381.6 C 523.6 381.7 529.9 378.6 532.3 377.8 C 534.7 377.0 536.2 377.3 541.1 375.7 C 541.1 375.7 541.1 375.7 541.1 375.7 Z M 371.0 429.4 C 367.2 431.1 371.0 441.4 375.5 439.4 C 380.0 437.5 387.4 433.1 389.8 432.3 C 392.3 431.5 402.4 427.9 404.5 427.0 C 406.5 426.1 413.4 421.5 418.1 420.6 C 422.8 419.6 426.4 416.2 429.6 415.4 C 433.6 414.5 435.4 413.1 438.2 411.8 C 441.0 410.4 446.2 410.7 448.4 408.9 C 450.5 407.1 452.3 407.5 455.7 406.2 C 459.2 404.8 455.2 394.6 452.0 395.9 C 448.7 397.1 445.9 398.4 442.8 399.9 C 439.6 401.4 435.8 403.1 432.3 404.5 C 429.2 405.7 424.0 406.4 420.6 408.5 C 417.2 410.6 412.1 413.1 410.0 414.1 C 407.4 415.3 401.7 417.3 399.6 418.9 C 396.8 420.9 391.1 422.1 388.8 422.1 C 386.5 422.1 385.7 423.8 381.4 425.4 C 378.9 426.4 374.8 427.7 371.0 429.4 C 371.0 429.4 371.0 429.4 371.0 429.4 Z M 371.0 429.4 " fill="#D35854"></path><text xml:space="preserve" font-family="Yearsupplyoffairycakes" font-size="125.0" fill="#52575F" transform="matrix(0.98, -0.20, -0.20, -0.98, 373.7, 484.8)">1</text><text xml:space="preserve" font-family="Yearsupplyoffairycakes" font-size="125.0" fill="#52575F" transform="matrix(0.98, -0.20, -0.20, -0.98, 444.8, 470.2)">1</text></g></svg>