<?xml version="1.0" encoding="UTF-8" standalone="no"?><svg xmlns="http://www.w3.org/2000/svg" xmlns:xlink="http://www.w3.org/1999/xlink" clip-rule="evenodd" stroke-miterlimit="4.00" viewBox="0 0 254 115"><desc>SVG generated by Keynote</desc><defs></defs><g transform="matrix(1.00, 0.00, -0.00, -1.00, 0.0, 115.0)"><path d="M 230.5 26.6 C 234.4 25.3 239.6 22.9 238.4 17.0 C 237.3 11.0 231.5 7.9 225.5 9.9 C 219.4 11.8 222.2 14.4 208.2 19.0 C 203.0 20.7 206.2 31.2 211.4 29.5 C 223.8 25.4 223.1 28.9 230.5 26.6 C 230.5 26.6 230.5 26.6 230.5 26.6 Z M 22.6 88.1 C 15.9 91.2 14.4 95.0 16.7 100.4 C 19.1 106.0 24.0 106.8 29.9 104.1 C 35.9 101.4 34.2 98.5 44.3 94.0 C 49.8 91.7 44.4 82.0 39.9 83.9 C 29.1 88.8 29.4 85.0 22.6 88.1 C 22.6 88.1 22.6 88.1 22.6 88.1 Z M 211.1 29.7 C 214.7 28.4 211.3 17.9 207.0 19.3 C 202.5 20.8 193.3 26.0 190.7 26.7 C 188.0 27.4 180.3 27.8 178.0 28.6 C 175.8 29.4 166.1 36.3 161.2 37.1 C 156.3 37.8 155.2 38.8 152.0 39.9 C 148.9 41.1 144.1 43.5 141.3 44.9 C 138.4 46.2 134.7 44.5 131.1 46.7 C 127.5 48.9 125.0 48.7 122.3 49.7 C 118.1 51.3 122.3 61.5 126.3 59.9 C 130.1 58.5 132.9 58.2 136.1 56.7 C 139.3 55.3 141.7 53.1 145.2 53.0 C 148.7 53.0 154.3 49.6 157.8 47.5 C 161.3 45.5 165.6 44.3 168.8 43.7 C 175.1 42.4 188.8 35.4 191.2 35.6 C 193.6 35.7 199.9 32.6 202.3 31.8 C 204.7 31.0 206.2 31.3 211.1 29.7 C 211.1 29.7 211.1 29.7 211.1 29.7 Z M 41.0 83.4 C 37.2 85.1 41.0 95.4 45.5 93.4 C 50.0 91.5 57.4 87.1 59.8 86.3 C 62.3 85.5 72.4 81.9 74.5 81.0 C 76.5 80.1 83.4 75.5 88.1 74.6 C 92.8 73.6 96.4 70.2 99.6 69.4 C 103.6 68.5 105.4 67.1 108.2 65.8 C 111.0 64.4 116.2 64.7 118.4 62.9 C 120.5 61.1 122.3 61.5 125.7 60.2 C 129.2 58.8 125.2 48.6 122.0 49.9 C 118.7 51.1 115.9 52.4 112.8 53.9 C 109.6 55.4 105.8 57.1 102.3 58.5 C 99.2 59.7 94.0 60.4 90.6 62.5 C 87.2 64.6 82.1 67.1 80.0 68.1 C 77.4 69.3 71.7 71.3 69.6 72.9 C 66.8 74.9 61.1 76.1 58.8 76.1 C 56.5 76.1 55.7 77.8 51.4 79.4 C 48.9 80.4 44.8 81.7 41.0 83.4 C 41.0 83.4 41.0 83.4 41.0 83.4 Z M 41.0 83.4 " fill="#D35854"></path></g></svg>