<?xml version="1.0" encoding="UTF-8" standalone="no"?><svg xmlns="http://www.w3.org/2000/svg" xmlns:xlink="http://www.w3.org/1999/xlink" clip-rule="evenodd" stroke-miterlimit="4.00" viewBox="0 0 1024 768"><desc>SVG generated by Keynote</desc><defs></defs><g transform="matrix(1.00, 0.00, -0.00, -1.00, 0.0, 768.0)"><path d="M 0.0 768.0 L 1024.0 768.0 L 1024.0 0.0 L 0.0 0.0 Z M 0.0 768.0 " fill="#7ADA45"></path><text xml:space="preserve" font-family="HelveticaNeue-Bold" font-weight="bold" font-size="180.0" fill="#FEFFFF" transform="matrix(1.00, 0.00, -0.00, -1.00, 404.0, 341.0)">3</text><text xml:space="preserve" font-family="HelveticaNeue-Bold" font-weight="bold" font-size="180.0" fill="#FEFFFF" transform="matrix(1.00, 0.00, -0.00, -1.00, 496.9, 341.0)">K</text><text xml:space="preserve" font-family="HelveticaNeue-Thin" font-size="64.0" fill="#FEFFFF" transform="matrix(1.00, 0.00, -0.00, -1.00, 357.0, 271.0)">g</text><text xml:space="preserve" font-family="HelveticaNeue-Thin" font-size="64.0" fill="#FEFFFF" transform="matrix(1.00, 0.00, -0.00, -1.00, 391.4, 271.0)">i</text><text xml:space="preserve" font-family="HelveticaNeue-Thin" font-size="64.0" fill="#FEFFFF" transform="matrix(1.00, 0.00, -0.00, -1.00, 402.1, 271.0)">t</text><text xml:space="preserve" font-family="HelveticaNeue-Thin" font-size="64.0" fill="#FEFFFF" transform="matrix(1.00, 0.00, -0.00, -1.00, 418.7, 271.0)">h</text><text xml:space="preserve" font-family="HelveticaNeue-Thin" font-size="64.0" fill="#FEFFFF" transform="matrix(1.00, 0.00, -0.00, -1.00, 451.9, 271.0)">u</text><text xml:space="preserve" font-family="HelveticaNeue-Thin" font-size="64.0" fill="#FEFFFF" transform="matrix(1.00, 0.00, -0.00, -1.00, 485.1, 271.0)">b</text><text xml:space="preserve" font-family="HelveticaNeue-Thin" font-size="64.0" fill="#FEFFFF" transform="matrix(1.00, 0.00, -0.00, -1.00, 520.7, 271.0)"> </text><text xml:space="preserve" font-family="HelveticaNeue-Thin" font-size="64.0" fill="#FEFFFF" transform="matrix(1.00, 0.00, -0.00, -1.00, 538.5, 271.0)">s</text><text xml:space="preserve" font-family="HelveticaNeue-Thin" font-size="64.0" fill="#FEFFFF" transform="matrix(1.00, 0.00, -0.00, -1.00, 569.3, 271.0)">t</text><text xml:space="preserve" font-family="HelveticaNeue-Thin" font-size="64.0" fill="#FEFFFF" transform="matrix(1.00, 0.00, -0.00, -1.00, 585.9, 271.0)">a</text><text xml:space="preserve" font-family="HelveticaNeue-Thin" font-size="64.0" fill="#FEFFFF" transform="matrix(1.00, 0.00, -0.00, -1.00, 617.9, 271.0)">r</text><text xml:space="preserve" font-family="HelveticaNeue-Thin" font-size="64.0" fill="#FEFFFF" transform="matrix(1.00, 0.00, -0.00, -1.00, 635.7, 271.0)">s</text></g></svg>