<?xml version="1.0" encoding="UTF-8" standalone="no"?><svg xmlns="http://www.w3.org/2000/svg" xmlns:xlink="http://www.w3.org/1999/xlink" clip-rule="evenodd" stroke-miterlimit="4.00" viewBox="0 0 383 26"><desc>SVG generated by Keynote</desc><defs></defs><g transform="matrix(1.00, 0.00, -0.00, -1.00, 0.0, 26.0)"><text xml:space="preserve" font-family="HelveticaNeue-Thin" font-size="32.0" fill="#FEFFFF" transform="matrix(1.00, 0.00, -0.00, -1.00, 1.0, 2.0)">ﬂ</text><text xml:space="preserve" font-family="HelveticaNeue-Thin" font-size="32.0" fill="#FEFFFF" transform="matrix(1.00, 0.00, -0.00, -1.00, 13.4, 2.0)">e</text><text xml:space="preserve" font-family="HelveticaNeue-Thin" font-size="32.0" fill="#FEFFFF" transform="matrix(1.00, 0.00, -0.00, -1.00, 29.7, 2.0)">x</text><text xml:space="preserve" font-family="HelveticaNeue-Thin" font-size="32.0" fill="#FEFFFF" transform="matrix(1.00, 0.00, -0.00, -1.00, 43.9, 2.0)">i</text><text xml:space="preserve" font-family="HelveticaNeue-Thin" font-size="32.0" fill="#FEFFFF" transform="matrix(1.00, 0.00, -0.00, -1.00, 49.3, 2.0)">b</text><text xml:space="preserve" font-family="HelveticaNeue-Thin" font-size="32.0" fill="#FEFFFF" transform="matrix(1.00, 0.00, -0.00, -1.00, 67.0, 2.0)">l</text><text xml:space="preserve" font-family="HelveticaNeue-Thin" font-size="32.0" fill="#FEFFFF" transform="matrix(1.00, 0.00, -0.00, -1.00, 72.4, 2.0)">e</text><text xml:space="preserve" font-family="HelveticaNeue-Thin" font-size="32.0" fill="#FEFFFF" transform="matrix(1.00, 0.00, -0.00, -1.00, 89.0, 2.0)"> </text><text xml:space="preserve" font-family="HelveticaNeue-Thin" font-size="32.0" fill="#FEFFFF" transform="matrix(1.00, 0.00, -0.00, -1.00, 97.9, 2.0)">a</text><text xml:space="preserve" font-family="HelveticaNeue-Thin" font-size="32.0" fill="#FEFFFF" transform="matrix(1.00, 0.00, -0.00, -1.00, 113.9, 2.0)">d</text><text xml:space="preserve" font-family="HelveticaNeue-Thin" font-size="32.0" fill="#FEFFFF" transform="matrix(1.00, 0.00, -0.00, -1.00, 131.7, 2.0)">m</text><text xml:space="preserve" font-family="HelveticaNeue-Thin" font-size="32.0" fill="#FEFFFF" transform="matrix(1.00, 0.00, -0.00, -1.00, 157.2, 2.0)">i</text><text xml:space="preserve" font-family="HelveticaNeue-Thin" font-size="32.0" fill="#FEFFFF" transform="matrix(1.00, 0.00, -0.00, -1.00, 162.6, 2.0)">n</text><text xml:space="preserve" font-family="HelveticaNeue-Thin" font-size="32.0" fill="#FEFFFF" transform="matrix(1.00, 0.00, -0.00, -1.00, 179.2, 2.0)"> </text><text xml:space="preserve" font-family="HelveticaNeue-Thin" font-size="32.0" fill="#FEFFFF" transform="matrix(1.00, 0.00, -0.00, -1.00, 188.1, 2.0)">u</text><text xml:space="preserve" font-family="HelveticaNeue-Thin" font-size="32.0" fill="#FEFFFF" transform="matrix(1.00, 0.00, -0.00, -1.00, 204.7, 2.0)">s</text><text xml:space="preserve" font-family="HelveticaNeue-Thin" font-size="32.0" fill="#FEFFFF" transform="matrix(1.00, 0.00, -0.00, -1.00, 220.1, 2.0)">e</text><text xml:space="preserve" font-family="HelveticaNeue-Thin" font-size="32.0" fill="#FEFFFF" transform="matrix(1.00, 0.00, -0.00, -1.00, 236.7, 2.0)">r</text><text xml:space="preserve" font-family="HelveticaNeue-Thin" font-size="32.0" fill="#FEFFFF" transform="matrix(1.00, 0.00, -0.00, -1.00, 245.6, 2.0)"> </text><text xml:space="preserve" font-family="HelveticaNeue-Thin" font-size="32.0" fill="#FEFFFF" transform="matrix(1.00, 0.00, -0.00, -1.00, 254.5, 2.0)">i</text><text xml:space="preserve" font-family="HelveticaNeue-Thin" font-size="32.0" fill="#FEFFFF" transform="matrix(1.00, 0.00, -0.00, -1.00, 259.8, 2.0)">n</text><text xml:space="preserve" font-family="HelveticaNeue-Thin" font-size="32.0" fill="#FEFFFF" transform="matrix(1.00, 0.00, -0.00, -1.00, 276.5, 2.0)">t</text><text xml:space="preserve" font-family="HelveticaNeue-Thin" font-size="32.0" fill="#FEFFFF" transform="matrix(1.00, 0.00, -0.00, -1.00, 284.3, 2.0)">e</text><text xml:space="preserve" font-family="HelveticaNeue-Thin" font-size="32.0" fill="#FEFFFF" transform="matrix(1.00, 0.00, -0.00, -1.00, 300.9, 2.0)">r</text><text xml:space="preserve" font-family="HelveticaNeue-Thin" font-size="32.0" fill="#FEFFFF" transform="matrix(1.00, 0.00, -0.00, -1.00, 310.6, 2.0)">f</text><text xml:space="preserve" font-family="HelveticaNeue-Thin" font-size="32.0" fill="#FEFFFF" transform="matrix(1.00, 0.00, -0.00, -1.00, 318.3, 2.0)">a</text><text xml:space="preserve" font-family="HelveticaNeue-Thin" font-size="32.0" fill="#FEFFFF" transform="matrix(1.00, 0.00, -0.00, -1.00, 334.3, 2.0)">c</text><text xml:space="preserve" font-family="HelveticaNeue-Thin" font-size="32.0" fill="#FEFFFF" transform="matrix(1.00, 0.00, -0.00, -1.00, 351.0, 2.0)">e</text><text xml:space="preserve" font-family="HelveticaNeue-Thin" font-size="32.0" fill="#FEFFFF" transform="matrix(1.00, 0.00, -0.00, -1.00, 367.6, 2.0)">s</text></g></svg>