<?xml version="1.0" encoding="UTF-8" standalone="no"?><svg xmlns="http://www.w3.org/2000/svg" xmlns:xlink="http://www.w3.org/1999/xlink" clip-rule="evenodd" stroke-miterlimit="4.00" viewBox="0 0 1024 768"><desc>SVG generated by Keynote</desc><defs></defs><g transform="matrix(1.00, 0.00, -0.00, -1.00, 0.0, 768.0)"><path d="M 0.0 768.0 L 1024.0 768.0 L 1024.0 0.0 L 0.0 0.0 Z M 0.0 768.0 " fill="#7ADA45"></path><text xml:space="preserve" font-family="HelveticaNeue-Bold" font-weight="bold" font-size="180.0" fill="#FEFFFF" transform="matrix(1.00, 0.00, -0.00, -1.00, 358.0, 341.0)">1</text><text xml:space="preserve" font-family="HelveticaNeue-Bold" font-weight="bold" font-size="180.0" fill="#FEFFFF" transform="matrix(1.00, 0.00, -0.00, -1.00, 450.9, 341.0)">0</text><text xml:space="preserve" font-family="HelveticaNeue-Bold" font-weight="bold" font-size="180.0" fill="#FEFFFF" transform="matrix(1.00, 0.00, -0.00, -1.00, 543.8, 341.0)">K</text><text xml:space="preserve" font-family="HelveticaNeue-Thin" font-size="64.0" fill="#FEFFFF" transform="matrix(1.00, 0.00, -0.00, -1.00, 131.0, 271.0)">p</text><text xml:space="preserve" font-family="HelveticaNeue-Thin" font-size="64.0" fill="#FEFFFF" transform="matrix(1.00, 0.00, -0.00, -1.00, 166.6, 271.0)">a</text><text xml:space="preserve" font-family="HelveticaNeue-Thin" font-size="64.0" fill="#FEFFFF" transform="matrix(1.00, 0.00, -0.00, -1.00, 198.6, 271.0)">s</text><text xml:space="preserve" font-family="HelveticaNeue-Thin" font-size="64.0" fill="#FEFFFF" transform="matrix(1.00, 0.00, -0.00, -1.00, 229.4, 271.0)">s</text><text xml:space="preserve" font-family="HelveticaNeue-Thin" font-size="64.0" fill="#FEFFFF" transform="matrix(1.00, 0.00, -0.00, -1.00, 260.2, 271.0)">i</text><text xml:space="preserve" font-family="HelveticaNeue-Thin" font-size="64.0" fill="#FEFFFF" transform="matrix(1.00, 0.00, -0.00, -1.00, 270.9, 271.0)">n</text><text xml:space="preserve" font-family="HelveticaNeue-Thin" font-size="64.0" fill="#FEFFFF" transform="matrix(1.00, 0.00, -0.00, -1.00, 304.1, 271.0)">g</text><text xml:space="preserve" font-family="HelveticaNeue-Thin" font-size="64.0" fill="#FEFFFF" transform="matrix(1.00, 0.00, -0.00, -1.00, 338.5, 271.0)"> </text><text xml:space="preserve" font-family="HelveticaNeue-Thin" font-size="64.0" fill="#FEFFFF" transform="matrix(1.00, 0.00, -0.00, -1.00, 356.3, 271.0)">r</text><text xml:space="preserve" font-family="HelveticaNeue-Thin" font-size="64.0" fill="#FEFFFF" transform="matrix(1.00, 0.00, -0.00, -1.00, 374.1, 271.0)">u</text><text xml:space="preserve" font-family="HelveticaNeue-Thin" font-size="64.0" fill="#FEFFFF" transform="matrix(1.00, 0.00, -0.00, -1.00, 407.3, 271.0)">b</text><text xml:space="preserve" font-family="HelveticaNeue-Thin" font-size="64.0" fill="#FEFFFF" transform="matrix(1.00, 0.00, -0.00, -1.00, 442.9, 271.0)">y</text><text xml:space="preserve" font-family="HelveticaNeue-Thin" font-size="64.0" fill="#FEFFFF" transform="matrix(1.00, 0.00, -0.00, -1.00, 471.3, 271.0)"> </text><text xml:space="preserve" font-family="HelveticaNeue-Thin" font-size="64.0" fill="#FEFFFF" transform="matrix(1.00, 0.00, -0.00, -1.00, 489.1, 271.0)">s</text><text xml:space="preserve" font-family="HelveticaNeue-Thin" font-size="64.0" fill="#FEFFFF" transform="matrix(1.00, 0.00, -0.00, -1.00, 519.9, 271.0)">p</text><text xml:space="preserve" font-family="HelveticaNeue-Thin" font-size="64.0" fill="#FEFFFF" transform="matrix(1.00, 0.00, -0.00, -1.00, 555.4, 271.0)">e</text><text xml:space="preserve" font-family="HelveticaNeue-Thin" font-size="64.0" fill="#FEFFFF" transform="matrix(1.00, 0.00, -0.00, -1.00, 588.7, 271.0)">c</text><text xml:space="preserve" font-family="HelveticaNeue-Thin" font-size="64.0" fill="#FEFFFF" transform="matrix(1.00, 0.00, -0.00, -1.00, 621.9, 271.0)"> </text><text xml:space="preserve" font-family="HelveticaNeue-Thin" font-size="64.0" fill="#FEFFFF" transform="matrix(1.00, 0.00, -0.00, -1.00, 639.7, 271.0)">e</text><text xml:space="preserve" font-family="HelveticaNeue-Thin" font-size="64.0" fill="#FEFFFF" transform="matrix(1.00, 0.00, -0.00, -1.00, 672.1, 271.0)">x</text><text xml:space="preserve" font-family="HelveticaNeue-Thin" font-size="64.0" fill="#FEFFFF" transform="matrix(1.00, 0.00, -0.00, -1.00, 700.5, 271.0)">a</text><text xml:space="preserve" font-family="HelveticaNeue-Thin" font-size="64.0" fill="#FEFFFF" transform="matrix(1.00, 0.00, -0.00, -1.00, 732.5, 271.0)">m</text><text xml:space="preserve" font-family="HelveticaNeue-Thin" font-size="64.0" fill="#FEFFFF" transform="matrix(1.00, 0.00, -0.00, -1.00, 783.5, 271.0)">p</text><text xml:space="preserve" font-family="HelveticaNeue-Thin" font-size="64.0" fill="#FEFFFF" transform="matrix(1.00, 0.00, -0.00, -1.00, 819.1, 271.0)">l</text><text xml:space="preserve" font-family="HelveticaNeue-Thin" font-size="64.0" fill="#FEFFFF" transform="matrix(1.00, 0.00, -0.00, -1.00, 829.8, 271.0)">e</text><text xml:space="preserve" font-family="HelveticaNeue-Thin" font-size="64.0" fill="#FEFFFF" transform="matrix(1.00, 0.00, -0.00, -1.00, 863.0, 271.0)">s</text></g></svg>