<?xml version="1.0" encoding="UTF-8" standalone="no"?><svg xmlns="http://www.w3.org/2000/svg" xmlns:xlink="http://www.w3.org/1999/xlink" clip-rule="evenodd" stroke-miterlimit="4.00" viewBox="0 0 1024 768"><desc>SVG generated by Keynote</desc><defs></defs><g transform="matrix(1.00, 0.00, -0.00, -1.00, 0.0, 768.0)"><path d="M 0.0 768.0 L 1024.0 768.0 L 1024.0 0.0 L 0.0 0.0 Z M 0.0 768.0 " fill="#8952A8"></path><text xml:space="preserve" font-family="HelveticaNeue-Bold" font-weight="bold" font-size="80.0" fill="#FEFFFF" transform="matrix(1.00, 0.00, -0.00, -1.00, 135.0, 401.0)">a</text><text xml:space="preserve" font-family="HelveticaNeue-Bold" font-weight="bold" font-size="80.0" fill="#FEFFFF" transform="matrix(1.00, 0.00, -0.00, -1.00, 177.7, 401.0)"> </text><text xml:space="preserve" font-family="HelveticaNeue-Bold" font-weight="bold" font-size="80.0" fill="#FEFFFF" transform="matrix(1.00, 0.00, -0.00, -1.00, 196.8, 401.0)">p</text><text xml:space="preserve" font-family="HelveticaNeue-Bold" font-weight="bold" font-size="80.0" fill="#FEFFFF" transform="matrix(1.00, 0.00, -0.00, -1.00, 242.4, 401.0)">r</text><text xml:space="preserve" font-family="HelveticaNeue-Bold" font-weight="bold" font-size="80.0" fill="#FEFFFF" transform="matrix(1.00, 0.00, -0.00, -1.00, 270.4, 401.0)">a</text><text xml:space="preserve" font-family="HelveticaNeue-Bold" font-weight="bold" font-size="80.0" fill="#FEFFFF" transform="matrix(1.00, 0.00, -0.00, -1.00, 313.1, 401.0)">g</text><text xml:space="preserve" font-family="HelveticaNeue-Bold" font-weight="bold" font-size="80.0" fill="#FEFFFF" transform="matrix(1.00, 0.00, -0.00, -1.00, 358.8, 401.0)">m</text><text xml:space="preserve" font-family="HelveticaNeue-Bold" font-weight="bold" font-size="80.0" fill="#FEFFFF" transform="matrix(1.00, 0.00, -0.00, -1.00, 428.0, 401.0)">a</text><text xml:space="preserve" font-family="HelveticaNeue-Bold" font-weight="bold" font-size="80.0" fill="#FEFFFF" transform="matrix(1.00, 0.00, -0.00, -1.00, 470.8, 401.0)">t</text><text xml:space="preserve" font-family="HelveticaNeue-Bold" font-weight="bold" font-size="80.0" fill="#FEFFFF" transform="matrix(1.00, 0.00, -0.00, -1.00, 495.7, 401.0)">i</text><text xml:space="preserve" font-family="HelveticaNeue-Bold" font-weight="bold" font-size="80.0" fill="#FEFFFF" transform="matrix(1.00, 0.00, -0.00, -1.00, 513.2, 401.0)">c</text><text xml:space="preserve" font-family="HelveticaNeue-Bold" font-weight="bold" font-size="80.0" fill="#FEFFFF" transform="matrix(1.00, 0.00, -0.00, -1.00, 555.9, 401.0)"> </text><text xml:space="preserve" font-family="HelveticaNeue-Bold" font-weight="bold" font-size="80.0" fill="#FEFFFF" transform="matrix(1.00, 0.00, -0.00, -1.00, 574.9, 401.0)">u</text><text xml:space="preserve" font-family="HelveticaNeue-Bold" font-weight="bold" font-size="80.0" fill="#FEFFFF" transform="matrix(1.00, 0.00, -0.00, -1.00, 619.2, 401.0)">s</text><text xml:space="preserve" font-family="HelveticaNeue-Bold" font-weight="bold" font-size="80.0" fill="#FEFFFF" transform="matrix(1.00, 0.00, -0.00, -1.00, 658.9, 401.0)">e</text><text xml:space="preserve" font-family="HelveticaNeue-Bold" font-weight="bold" font-size="80.0" fill="#FEFFFF" transform="matrix(1.00, 0.00, -0.00, -1.00, 701.6, 401.0)"> </text><text xml:space="preserve" font-family="HelveticaNeue-Bold" font-weight="bold" font-size="80.0" fill="#FEFFFF" transform="matrix(1.00, 0.00, -0.00, -1.00, 720.7, 401.0)">c</text><text xml:space="preserve" font-family="HelveticaNeue-Bold" font-weight="bold" font-size="80.0" fill="#FEFFFF" transform="matrix(1.00, 0.00, -0.00, -1.00, 763.4, 401.0)">a</text><text xml:space="preserve" font-family="HelveticaNeue-Bold" font-weight="bold" font-size="80.0" fill="#FEFFFF" transform="matrix(1.00, 0.00, -0.00, -1.00, 806.1, 401.0)">s</text><text xml:space="preserve" font-family="HelveticaNeue-Bold" font-weight="bold" font-size="80.0" fill="#FEFFFF" transform="matrix(1.00, 0.00, -0.00, -1.00, 845.9, 401.0)">e</text><text xml:space="preserve" font-family="HelveticaNeue-Thin" font-size="32.0" fill="#FEFFFF" transform="matrix(1.00, 0.00, -0.00, -1.00, 321.0, 337.0)">ﬂ</text><text xml:space="preserve" font-family="HelveticaNeue-Thin" font-size="32.0" fill="#FEFFFF" transform="matrix(1.00, 0.00, -0.00, -1.00, 333.4, 337.0)">e</text><text xml:space="preserve" font-family="HelveticaNeue-Thin" font-size="32.0" fill="#FEFFFF" transform="matrix(1.00, 0.00, -0.00, -1.00, 349.7, 337.0)">x</text><text xml:space="preserve" font-family="HelveticaNeue-Thin" font-size="32.0" fill="#FEFFFF" transform="matrix(1.00, 0.00, -0.00, -1.00, 363.9, 337.0)">i</text><text xml:space="preserve" font-family="HelveticaNeue-Thin" font-size="32.0" fill="#FEFFFF" transform="matrix(1.00, 0.00, -0.00, -1.00, 369.3, 337.0)">b</text><text xml:space="preserve" font-family="HelveticaNeue-Thin" font-size="32.0" fill="#FEFFFF" transform="matrix(1.00, 0.00, -0.00, -1.00, 387.0, 337.0)">l</text><text xml:space="preserve" font-family="HelveticaNeue-Thin" font-size="32.0" fill="#FEFFFF" transform="matrix(1.00, 0.00, -0.00, -1.00, 392.4, 337.0)">e</text><text xml:space="preserve" font-family="HelveticaNeue-Thin" font-size="32.0" fill="#FEFFFF" transform="matrix(1.00, 0.00, -0.00, -1.00, 409.0, 337.0)"> </text><text xml:space="preserve" font-family="HelveticaNeue-Thin" font-size="32.0" fill="#FEFFFF" transform="matrix(1.00, 0.00, -0.00, -1.00, 417.9, 337.0)">a</text><text xml:space="preserve" font-family="HelveticaNeue-Thin" font-size="32.0" fill="#FEFFFF" transform="matrix(1.00, 0.00, -0.00, -1.00, 433.9, 337.0)">d</text><text xml:space="preserve" font-family="HelveticaNeue-Thin" font-size="32.0" fill="#FEFFFF" transform="matrix(1.00, 0.00, -0.00, -1.00, 451.7, 337.0)">m</text><text xml:space="preserve" font-family="HelveticaNeue-Thin" font-size="32.0" fill="#FEFFFF" transform="matrix(1.00, 0.00, -0.00, -1.00, 477.2, 337.0)">i</text><text xml:space="preserve" font-family="HelveticaNeue-Thin" font-size="32.0" fill="#FEFFFF" transform="matrix(1.00, 0.00, -0.00, -1.00, 482.6, 337.0)">n</text><text xml:space="preserve" font-family="HelveticaNeue-Thin" font-size="32.0" fill="#FEFFFF" transform="matrix(1.00, 0.00, -0.00, -1.00, 499.2, 337.0)"> </text><text xml:space="preserve" font-family="HelveticaNeue-Thin" font-size="32.0" fill="#FEFFFF" transform="matrix(1.00, 0.00, -0.00, -1.00, 508.1, 337.0)">u</text><text xml:space="preserve" font-family="HelveticaNeue-Thin" font-size="32.0" fill="#FEFFFF" transform="matrix(1.00, 0.00, -0.00, -1.00, 524.7, 337.0)">s</text><text xml:space="preserve" font-family="HelveticaNeue-Thin" font-size="32.0" fill="#FEFFFF" transform="matrix(1.00, 0.00, -0.00, -1.00, 540.1, 337.0)">e</text><text xml:space="preserve" font-family="HelveticaNeue-Thin" font-size="32.0" fill="#FEFFFF" transform="matrix(1.00, 0.00, -0.00, -1.00, 556.7, 337.0)">r</text><text xml:space="preserve" font-family="HelveticaNeue-Thin" font-size="32.0" fill="#FEFFFF" transform="matrix(1.00, 0.00, -0.00, -1.00, 565.6, 337.0)"> </text><text xml:space="preserve" font-family="HelveticaNeue-Thin" font-size="32.0" fill="#FEFFFF" transform="matrix(1.00, 0.00, -0.00, -1.00, 574.5, 337.0)">i</text><text xml:space="preserve" font-family="HelveticaNeue-Thin" font-size="32.0" fill="#FEFFFF" transform="matrix(1.00, 0.00, -0.00, -1.00, 579.8, 337.0)">n</text><text xml:space="preserve" font-family="HelveticaNeue-Thin" font-size="32.0" fill="#FEFFFF" transform="matrix(1.00, 0.00, -0.00, -1.00, 596.5, 337.0)">t</text><text xml:space="preserve" font-family="HelveticaNeue-Thin" font-size="32.0" fill="#FEFFFF" transform="matrix(1.00, 0.00, -0.00, -1.00, 604.3, 337.0)">e</text><text xml:space="preserve" font-family="HelveticaNeue-Thin" font-size="32.0" fill="#FEFFFF" transform="matrix(1.00, 0.00, -0.00, -1.00, 620.9, 337.0)">r</text><text xml:space="preserve" font-family="HelveticaNeue-Thin" font-size="32.0" fill="#FEFFFF" transform="matrix(1.00, 0.00, -0.00, -1.00, 630.6, 337.0)">f</text><text xml:space="preserve" font-family="HelveticaNeue-Thin" font-size="32.0" fill="#FEFFFF" transform="matrix(1.00, 0.00, -0.00, -1.00, 638.3, 337.0)">a</text><text xml:space="preserve" font-family="HelveticaNeue-Thin" font-size="32.0" fill="#FEFFFF" transform="matrix(1.00, 0.00, -0.00, -1.00, 654.3, 337.0)">c</text><text xml:space="preserve" font-family="HelveticaNeue-Thin" font-size="32.0" fill="#FEFFFF" transform="matrix(1.00, 0.00, -0.00, -1.00, 671.0, 337.0)">e</text><text xml:space="preserve" font-family="HelveticaNeue-Thin" font-size="32.0" fill="#FEFFFF" transform="matrix(1.00, 0.00, -0.00, -1.00, 687.6, 337.0)">s</text><path d="M 372.9 504.5 L 431.4 504.5 L 431.4 446.0 L 372.9 446.0 Z M 372.9 504.5 " fill="#E7A432"></path><path d="M 226.3 474.9 L 342.3 474.9 L 342.3 445.3 L 226.3 445.3 Z M 226.3 474.9 " fill="#7ADA45"></path><g><clipPath id="clip-91"><path d="M 311.6 473.5 L 311.6 535.2 L 343.8 535.2 L 343.8 473.5 Z M 311.6 473.5 "></path></clipPath><g clip-path="url(#clip-91)"><path d="M 312.6 474.5 L 312.6 534.2 L 342.8 534.2 L 342.8 474.5 Z M 312.6 474.5 " fill="#1497FC"></path></g></g><g><clipPath id="clip-92"><path d="M 341.1 444.2 L 341.1 505.9 L 373.3 505.9 L 373.3 444.2 Z M 341.1 444.2 "></path></clipPath><g clip-path="url(#clip-92)"><path d="M 342.1 445.2 L 342.1 504.9 L 372.3 504.9 L 372.3 445.2 Z M 342.1 445.2 " fill="#1497FC"></path></g></g><g><clipPath id="clip-93"><path d="M 224.3 473.9 L 284.8 473.9 L 284.8 505.5 L 224.3 505.5 Z M 224.3 473.9 "></path></clipPath><g clip-path="url(#clip-93)"><path d="M 225.3 504.5 L 283.8 504.5 L 283.8 474.9 L 225.3 474.9 Z M 225.3 504.5 " fill="#D35854"></path></g></g><g><clipPath id="clip-94"><path d="M 196.0 445.0 L 196.0 505.5 L 227.6 505.5 L 227.6 445.0 Z M 196.0 445.0 "></path></clipPath><g clip-path="url(#clip-94)"><path d="M 197.0 446.0 L 197.0 504.5 L 226.6 504.5 L 226.6 446.0 Z M 197.0 446.0 " fill="#D35854"></path></g></g></g></svg>