<?xml version="1.0" encoding="UTF-8" standalone="no"?><svg xmlns="http://www.w3.org/2000/svg" xmlns:xlink="http://www.w3.org/1999/xlink" clip-rule="evenodd" stroke-miterlimit="4.00" viewBox="0 0 1024 768"><desc>SVG generated by Keynote</desc><defs></defs><g transform="matrix(1.00, 0.00, -0.00, -1.00, 0.0, 768.0)"><path d="M 0.0 768.0 L 1024.0 768.0 L 1024.0 0.0 L 0.0 0.0 Z M 0.0 768.0 " fill="#8952A8"></path><text xml:space="preserve" font-family="HelveticaNeue-Bold" font-weight="bold" font-size="80.0" fill="#FEFFFF" transform="matrix(1.00, 0.00, -0.00, -1.00, 135.0, 401.0)">a</text><text xml:space="preserve" font-family="HelveticaNeue-Bold" font-weight="bold" font-size="80.0" fill="#FEFFFF" transform="matrix(1.00, 0.00, -0.00, -1.00, 177.7, 401.0)"> </text><text xml:space="preserve" font-family="HelveticaNeue-Bold" font-weight="bold" font-size="80.0" fill="#FEFFFF" transform="matrix(1.00, 0.00, -0.00, -1.00, 196.8, 401.0)">p</text><text xml:space="preserve" font-family="HelveticaNeue-Bold" font-weight="bold" font-size="80.0" fill="#FEFFFF" transform="matrix(1.00, 0.00, -0.00, -1.00, 242.4, 401.0)">r</text><text xml:space="preserve" font-family="HelveticaNeue-Bold" font-weight="bold" font-size="80.0" fill="#FEFFFF" transform="matrix(1.00, 0.00, -0.00, -1.00, 270.4, 401.0)">a</text><text xml:space="preserve" font-family="HelveticaNeue-Bold" font-weight="bold" font-size="80.0" fill="#FEFFFF" transform="matrix(1.00, 0.00, -0.00, -1.00, 313.1, 401.0)">g</text><text xml:space="preserve" font-family="HelveticaNeue-Bold" font-weight="bold" font-size="80.0" fill="#FEFFFF" transform="matrix(1.00, 0.00, -0.00, -1.00, 358.8, 401.0)">m</text><text xml:space="preserve" font-family="HelveticaNeue-Bold" font-weight="bold" font-size="80.0" fill="#FEFFFF" transform="matrix(1.00, 0.00, -0.00, -1.00, 428.0, 401.0)">a</text><text xml:space="preserve" font-family="HelveticaNeue-Bold" font-weight="bold" font-size="80.0" fill="#FEFFFF" transform="matrix(1.00, 0.00, -0.00, -1.00, 470.8, 401.0)">t</text><text xml:space="preserve" font-family="HelveticaNeue-Bold" font-weight="bold" font-size="80.0" fill="#FEFFFF" transform="matrix(1.00, 0.00, -0.00, -1.00, 495.7, 401.0)">i</text><text xml:space="preserve" font-family="HelveticaNeue-Bold" font-weight="bold" font-size="80.0" fill="#FEFFFF" transform="matrix(1.00, 0.00, -0.00, -1.00, 513.2, 401.0)">c</text><text xml:space="preserve" font-family="HelveticaNeue-Bold" font-weight="bold" font-size="80.0" fill="#FEFFFF" transform="matrix(1.00, 0.00, -0.00, -1.00, 555.9, 401.0)"> </text><text xml:space="preserve" font-family="HelveticaNeue-Bold" font-weight="bold" font-size="80.0" fill="#FEFFFF" transform="matrix(1.00, 0.00, -0.00, -1.00, 574.9, 401.0)">u</text><text xml:space="preserve" font-family="HelveticaNeue-Bold" font-weight="bold" font-size="80.0" fill="#FEFFFF" transform="matrix(1.00, 0.00, -0.00, -1.00, 619.2, 401.0)">s</text><text xml:space="preserve" font-family="HelveticaNeue-Bold" font-weight="bold" font-size="80.0" fill="#FEFFFF" transform="matrix(1.00, 0.00, -0.00, -1.00, 658.9, 401.0)">e</text><text xml:space="preserve" font-family="HelveticaNeue-Bold" font-weight="bold" font-size="80.0" fill="#FEFFFF" transform="matrix(1.00, 0.00, -0.00, -1.00, 701.6, 401.0)"> </text><text xml:space="preserve" font-family="HelveticaNeue-Bold" font-weight="bold" font-size="80.0" fill="#FEFFFF" transform="matrix(1.00, 0.00, -0.00, -1.00, 720.7, 401.0)">c</text><text xml:space="preserve" font-family="HelveticaNeue-Bold" font-weight="bold" font-size="80.0" fill="#FEFFFF" transform="matrix(1.00, 0.00, -0.00, -1.00, 763.4, 401.0)">a</text><text xml:space="preserve" font-family="HelveticaNeue-Bold" font-weight="bold" font-size="80.0" fill="#FEFFFF" transform="matrix(1.00, 0.00, -0.00, -1.00, 806.1, 401.0)">s</text><text xml:space="preserve" font-family="HelveticaNeue-Bold" font-weight="bold" font-size="80.0" fill="#FEFFFF" transform="matrix(1.00, 0.00, -0.00, -1.00, 845.9, 401.0)">e</text><text xml:space="preserve" font-family="HelveticaNeue-Thin" font-size="32.0" fill="#FEFFFF" transform="matrix(1.00, 0.00, -0.00, -1.00, 321.0, 337.0)">ﬂ</text><text xml:space="preserve" font-family="HelveticaNeue-Thin" font-size="32.0" fill="#FEFFFF" transform="matrix(1.00, 0.00, -0.00, -1.00, 333.4, 337.0)">e</text><text xml:space="preserve" font-family="HelveticaNeue-Thin" font-size="32.0" fill="#FEFFFF" transform="matrix(1.00, 0.00, -0.00, -1.00, 349.7, 337.0)">x</text><text xml:space="preserve" font-family="HelveticaNeue-Thin" font-size="32.0" fill="#FEFFFF" transform="matrix(1.00, 0.00, -0.00, -1.00, 363.9, 337.0)">i</text><text xml:space="preserve" font-family="HelveticaNeue-Thin" font-size="32.0" fill="#FEFFFF" transform="matrix(1.00, 0.00, -0.00, -1.00, 369.3, 337.0)">b</text><text xml:space="preserve" font-family="HelveticaNeue-Thin" font-size="32.0" fill="#FEFFFF" transform="matrix(1.00, 0.00, -0.00, -1.00, 387.0, 337.0)">l</text><text xml:space="preserve" font-family="HelveticaNeue-Thin" font-size="32.0" fill="#FEFFFF" transform="matrix(1.00, 0.00, -0.00, -1.00, 392.4, 337.0)">e</text><text xml:space="preserve" font-family="HelveticaNeue-Thin" font-size="32.0" fill="#FEFFFF" transform="matrix(1.00, 0.00, -0.00, -1.00, 409.0, 337.0)"> </text><text xml:space="preserve" font-family="HelveticaNeue-Thin" font-size="32.0" fill="#FEFFFF" transform="matrix(1.00, 0.00, -0.00, -1.00, 417.9, 337.0)">a</text><text xml:space="preserve" font-family="HelveticaNeue-Thin" font-size="32.0" fill="#FEFFFF" transform="matrix(1.00, 0.00, -0.00, -1.00, 433.9, 337.0)">d</text><text xml:space="preserve" font-family="HelveticaNeue-Thin" font-size="32.0" fill="#FEFFFF" transform="matrix(1.00, 0.00, -0.00, -1.00, 451.7, 337.0)">m</text><text xml:space="preserve" font-family="HelveticaNeue-Thin" font-size="32.0" fill="#FEFFFF" transform="matrix(1.00, 0.00, -0.00, -1.00, 477.2, 337.0)">i</text><text xml:space="preserve" font-family="HelveticaNeue-Thin" font-size="32.0" fill="#FEFFFF" transform="matrix(1.00, 0.00, -0.00, -1.00, 482.6, 337.0)">n</text><text xml:space="preserve" font-family="HelveticaNeue-Thin" font-size="32.0" fill="#FEFFFF" transform="matrix(1.00, 0.00, -0.00, -1.00, 499.2, 337.0)"> </text><text xml:space="preserve" font-family="HelveticaNeue-Thin" font-size="32.0" fill="#FEFFFF" transform="matrix(1.00, 0.00, -0.00, -1.00, 508.1, 337.0)">u</text><text xml:space="preserve" font-family="HelveticaNeue-Thin" font-size="32.0" fill="#FEFFFF" transform="matrix(1.00, 0.00, -0.00, -1.00, 524.7, 337.0)">s</text><text xml:space="preserve" font-family="HelveticaNeue-Thin" font-size="32.0" fill="#FEFFFF" transform="matrix(1.00, 0.00, -0.00, -1.00, 540.1, 337.0)">e</text><text xml:space="preserve" font-family="HelveticaNeue-Thin" font-size="32.0" fill="#FEFFFF" transform="matrix(1.00, 0.00, -0.00, -1.00, 556.7, 337.0)">r</text><text xml:space="preserve" font-family="HelveticaNeue-Thin" font-size="32.0" fill="#FEFFFF" transform="matrix(1.00, 0.00, -0.00, -1.00, 565.6, 337.0)"> </text><text xml:space="preserve" font-family="HelveticaNeue-Thin" font-size="32.0" fill="#FEFFFF" transform="matrix(1.00, 0.00, -0.00, -1.00, 574.5, 337.0)">i</text><text xml:space="preserve" font-family="HelveticaNeue-Thin" font-size="32.0" fill="#FEFFFF" transform="matrix(1.00, 0.00, -0.00, -1.00, 579.8, 337.0)">n</text><text xml:space="preserve" font-family="HelveticaNeue-Thin" font-size="32.0" fill="#FEFFFF" transform="matrix(1.00, 0.00, -0.00, -1.00, 596.5, 337.0)">t</text><text xml:space="preserve" font-family="HelveticaNeue-Thin" font-size="32.0" fill="#FEFFFF" transform="matrix(1.00, 0.00, -0.00, -1.00, 604.3, 337.0)">e</text><text xml:space="preserve" font-family="HelveticaNeue-Thin" font-size="32.0" fill="#FEFFFF" transform="matrix(1.00, 0.00, -0.00, -1.00, 620.9, 337.0)">r</text><text xml:space="preserve" font-family="HelveticaNeue-Thin" font-size="32.0" fill="#FEFFFF" transform="matrix(1.00, 0.00, -0.00, -1.00, 630.6, 337.0)">f</text><text xml:space="preserve" font-family="HelveticaNeue-Thin" font-size="32.0" fill="#FEFFFF" transform="matrix(1.00, 0.00, -0.00, -1.00, 638.3, 337.0)">a</text><text xml:space="preserve" font-family="HelveticaNeue-Thin" font-size="32.0" fill="#FEFFFF" transform="matrix(1.00, 0.00, -0.00, -1.00, 654.3, 337.0)">c</text><text xml:space="preserve" font-family="HelveticaNeue-Thin" font-size="32.0" fill="#FEFFFF" transform="matrix(1.00, 0.00, -0.00, -1.00, 671.0, 337.0)">e</text><text xml:space="preserve" font-family="HelveticaNeue-Thin" font-size="32.0" fill="#FEFFFF" transform="matrix(1.00, 0.00, -0.00, -1.00, 687.6, 337.0)">s</text><path d="M 408.9 566.5 L 467.4 566.5 L 467.4 508.0 L 408.9 508.0 Z M 408.9 566.5 " fill="#E7A432"></path><path d="M 226.3 474.9 L 342.3 474.9 L 342.3 445.3 L 226.3 445.3 Z M 226.3 474.9 " fill="#7ADA45"></path><g><clipPath id="clip-71"><path d="M 312.2 533.3 L 373.9 533.3 L 373.9 565.6 L 312.2 565.6 Z M 312.2 533.3 "></path></clipPath><g clip-path="url(#clip-71)"><path d="M 313.2 564.6 L 372.9 564.6 L 372.9 534.3 L 313.2 534.3 Z M 313.2 564.6 " fill="#1497FC"></path></g></g><g><clipPath id="clip-72"><path d="M 282.9 503.8 L 344.6 503.8 L 344.6 536.1 L 282.9 536.1 Z M 282.9 503.8 "></path></clipPath><g clip-path="url(#clip-72)"><path d="M 283.9 535.1 L 343.6 535.1 L 343.6 504.8 L 283.9 504.8 Z M 283.9 535.1 " fill="#1497FC"></path></g></g><g><clipPath id="clip-73"><path d="M 193.3 566.9 L 253.8 566.9 L 253.8 598.5 L 193.3 598.5 Z M 193.3 566.9 "></path></clipPath><g clip-path="url(#clip-73)"><path d="M 194.3 597.5 L 252.8 597.5 L 252.8 567.9 L 194.3 567.9 Z M 194.3 597.5 " fill="#D35854"></path></g></g><g><clipPath id="clip-74"><path d="M 165.0 538.0 L 165.0 598.5 L 196.6 598.5 L 196.6 538.0 Z M 165.0 538.0 "></path></clipPath><g clip-path="url(#clip-74)"><path d="M 166.0 539.0 L 166.0 597.5 L 195.6 597.5 L 195.6 539.0 Z M 166.0 539.0 " fill="#D35854"></path></g></g></g></svg>