<?xml version="1.0" encoding="UTF-8" standalone="no"?><svg xmlns="http://www.w3.org/2000/svg" xmlns:xlink="http://www.w3.org/1999/xlink" clip-rule="evenodd" stroke-miterlimit="4.00" viewBox="0 0 1024 768"><desc>SVG generated by Keynote</desc><defs></defs><g transform="matrix(1.00, 0.00, -0.00, -1.00, 0.0, 768.0)"><path d="M 0.0 768.0 L 1024.0 768.0 L 1024.0 0.0 L 0.0 0.0 Z M 0.0 768.0 " fill="#DA6603"></path><text xml:space="preserve" font-family="HelveticaNeue-Bold" font-weight="bold" font-size="80.0" fill="#FEFFFF" transform="matrix(1.00, 0.00, -0.00, -1.00, 43.0, 658.0)">m</text><text xml:space="preserve" font-family="HelveticaNeue-Bold" font-weight="bold" font-size="80.0" fill="#FEFFFF" transform="matrix(1.00, 0.00, -0.00, -1.00, 112.3, 658.0)">e</text><text xml:space="preserve" font-family="HelveticaNeue-Bold" font-weight="bold" font-size="80.0" fill="#FEFFFF" transform="matrix(1.00, 0.00, -0.00, -1.00, 155.0, 658.0)">e</text><text xml:space="preserve" font-family="HelveticaNeue-Bold" font-weight="bold" font-size="80.0" fill="#FEFFFF" transform="matrix(1.00, 0.00, -0.00, -1.00, 197.7, 658.0)">t</text><text xml:space="preserve" font-family="HelveticaNeue-Bold" font-weight="bold" font-size="80.0" fill="#FEFFFF" transform="matrix(1.00, 0.00, -0.00, -1.00, 222.7, 658.0)"> </text><text xml:space="preserve" font-family="HelveticaNeue-Bold" font-weight="bold" font-size="80.0" fill="#FEFFFF" transform="matrix(1.00, 0.00, -0.00, -1.00, 241.7, 658.0)">j</text><text xml:space="preserve" font-family="HelveticaNeue-Bold" font-weight="bold" font-size="80.0" fill="#FEFFFF" transform="matrix(1.00, 0.00, -0.00, -1.00, 260.8, 658.0)">o</text><text xml:space="preserve" font-family="HelveticaNeue-Bold" font-weight="bold" font-size="80.0" fill="#FEFFFF" transform="matrix(1.00, 0.00, -0.00, -1.00, 306.4, 658.0)">e</text><text xml:space="preserve" font-family="HelveticaNeue-Bold" font-weight="bold" font-size="80.0" fill="#FEFFFF" transform="matrix(1.00, 0.00, -0.00, -1.00, 147.0, 517.0)">d</text><text xml:space="preserve" font-family="HelveticaNeue-Bold" font-weight="bold" font-size="80.0" fill="#FEFFFF" transform="matrix(1.00, 0.00, -0.00, -1.00, 192.7, 517.0)">o</text><text xml:space="preserve" font-family="HelveticaNeue-Bold" font-weight="bold" font-size="80.0" fill="#FEFFFF" transform="matrix(1.00, 0.00, -0.00, -1.00, 238.4, 517.0)">n</text><text xml:space="preserve" font-family="HelveticaNeue-Bold" font-weight="bold" font-size="80.0" fill="#FEFFFF" transform="matrix(1.00, 0.00, -0.00, -1.00, 282.6, 517.0)">e</text><text xml:space="preserve" font-family="HelveticaNeue-Bold" font-weight="bold" font-size="80.0" fill="#FEFFFF" transform="matrix(1.00, 0.00, -0.00, -1.00, 325.3, 517.0)"> </text><text xml:space="preserve" font-family="HelveticaNeue-Bold" font-weight="bold" font-size="80.0" fill="#FEFFFF" transform="matrix(1.00, 0.00, -0.00, -1.00, 344.4, 517.0)">r</text><text xml:space="preserve" font-family="HelveticaNeue-Bold" font-weight="bold" font-size="80.0" fill="#FEFFFF" transform="matrix(1.00, 0.00, -0.00, -1.00, 372.3, 517.0)">a</text><text xml:space="preserve" font-family="HelveticaNeue-Bold" font-weight="bold" font-size="80.0" fill="#FEFFFF" transform="matrix(1.00, 0.00, -0.00, -1.00, 415.0, 517.0)">i</text><text xml:space="preserve" font-family="HelveticaNeue-Bold" font-weight="bold" font-size="80.0" fill="#FEFFFF" transform="matrix(1.00, 0.00, -0.00, -1.00, 432.4, 517.0)">l</text><text xml:space="preserve" font-family="HelveticaNeue-Bold" font-weight="bold" font-size="80.0" fill="#FEFFFF" transform="matrix(1.00, 0.00, -0.00, -1.00, 449.9, 517.0)">s</text><text xml:space="preserve" font-family="HelveticaNeue-Bold" font-weight="bold" font-size="80.0" fill="#FEFFFF" transform="matrix(1.00, 0.00, -0.00, -1.00, 489.6, 517.0)"> </text><text xml:space="preserve" font-family="HelveticaNeue-Bold" font-weight="bold" font-size="80.0" fill="#FEFFFF" transform="matrix(1.00, 0.00, -0.00, -1.00, 508.7, 517.0)">f</text><text xml:space="preserve" font-family="HelveticaNeue-Bold" font-weight="bold" font-size="80.0" fill="#FEFFFF" transform="matrix(1.00, 0.00, -0.00, -1.00, 532.1, 517.0)">o</text><text xml:space="preserve" font-family="HelveticaNeue-Bold" font-weight="bold" font-size="80.0" fill="#FEFFFF" transform="matrix(1.00, 0.00, -0.00, -1.00, 577.8, 517.0)">r</text><text xml:space="preserve" font-family="HelveticaNeue-Bold" font-weight="bold" font-size="80.0" fill="#FEFFFF" transform="matrix(1.00, 0.00, -0.00, -1.00, 605.7, 517.0)"> </text><text xml:space="preserve" font-family="HelveticaNeue-Bold" font-weight="bold" font-size="80.0" fill="#FEFFFF" transform="matrix(1.00, 0.00, -0.00, -1.00, 624.8, 517.0)">5</text><text xml:space="preserve" font-family="HelveticaNeue-Bold" font-weight="bold" font-size="80.0" fill="#FEFFFF" transform="matrix(1.00, 0.00, -0.00, -1.00, 666.0, 517.0)">+</text><text xml:space="preserve" font-family="HelveticaNeue-Bold" font-weight="bold" font-size="80.0" fill="#FEFFFF" transform="matrix(1.00, 0.00, -0.00, -1.00, 710.8, 517.0)"> </text><text xml:space="preserve" font-family="HelveticaNeue-Bold" font-weight="bold" font-size="80.0" fill="#FEFFFF" transform="matrix(1.00, 0.00, -0.00, -1.00, 729.9, 517.0)">y</text><text xml:space="preserve" font-family="HelveticaNeue-Bold" font-weight="bold" font-size="80.0" fill="#FEFFFF" transform="matrix(1.00, 0.00, -0.00, -1.00, 768.2, 517.0)">e</text><text xml:space="preserve" font-family="HelveticaNeue-Bold" font-weight="bold" font-size="80.0" fill="#FEFFFF" transform="matrix(1.00, 0.00, -0.00, -1.00, 810.9, 517.0)">a</text><text xml:space="preserve" font-family="HelveticaNeue-Bold" font-weight="bold" font-size="80.0" fill="#FEFFFF" transform="matrix(1.00, 0.00, -0.00, -1.00, 853.6, 517.0)">r</text><text xml:space="preserve" font-family="HelveticaNeue-Bold" font-weight="bold" font-size="80.0" fill="#FEFFFF" transform="matrix(1.00, 0.00, -0.00, -1.00, 881.6, 517.0)">s</text><text xml:space="preserve" font-family="HelveticaNeue-Bold" font-weight="bold" font-size="80.0" fill="#FEFFFF" transform="matrix(1.00, 0.00, -0.00, -1.00, 181.0, 240.0)">c</text><text xml:space="preserve" font-family="HelveticaNeue-Bold" font-weight="bold" font-size="80.0" fill="#FEFFFF" transform="matrix(1.00, 0.00, -0.00, -1.00, 223.7, 240.0)">a</text><text xml:space="preserve" font-family="HelveticaNeue-Bold" font-weight="bold" font-size="80.0" fill="#FEFFFF" transform="matrix(1.00, 0.00, -0.00, -1.00, 266.4, 240.0)">n</text><text xml:space="preserve" font-family="HelveticaNeue-Bold" font-weight="bold" font-size="80.0" fill="#FEFFFF" transform="matrix(1.00, 0.00, -0.00, -1.00, 310.7, 240.0)"> </text><text xml:space="preserve" font-family="HelveticaNeue-Bold" font-weight="bold" font-size="80.0" fill="#FEFFFF" transform="matrix(1.00, 0.00, -0.00, -1.00, 329.7, 240.0)">s</text><text xml:space="preserve" font-family="HelveticaNeue-Bold" font-weight="bold" font-size="80.0" fill="#FEFFFF" transform="matrix(1.00, 0.00, -0.00, -1.00, 369.5, 240.0)">e</text><text xml:space="preserve" font-family="HelveticaNeue-Bold" font-weight="bold" font-size="80.0" fill="#FEFFFF" transform="matrix(1.00, 0.00, -0.00, -1.00, 412.2, 240.0)">t</text><text xml:space="preserve" font-family="HelveticaNeue-Bold" font-weight="bold" font-size="80.0" fill="#FEFFFF" transform="matrix(1.00, 0.00, -0.00, -1.00, 437.2, 240.0)">u</text><text xml:space="preserve" font-family="HelveticaNeue-Bold" font-weight="bold" font-size="80.0" fill="#FEFFFF" transform="matrix(1.00, 0.00, -0.00, -1.00, 481.4, 240.0)">p</text><text xml:space="preserve" font-family="HelveticaNeue-Bold" font-weight="bold" font-size="80.0" fill="#FEFFFF" transform="matrix(1.00, 0.00, -0.00, -1.00, 527.1, 240.0)"> </text><text xml:space="preserve" font-family="HelveticaNeue-Bold" font-weight="bold" font-size="80.0" fill="#FEFFFF" transform="matrix(1.00, 0.00, -0.00, -1.00, 546.1, 240.0)">c</text><text xml:space="preserve" font-family="HelveticaNeue-Bold" font-weight="bold" font-size="80.0" fill="#FEFFFF" transform="matrix(1.00, 0.00, -0.00, -1.00, 588.8, 240.0)">a</text><text xml:space="preserve" font-family="HelveticaNeue-Bold" font-weight="bold" font-size="80.0" fill="#FEFFFF" transform="matrix(1.00, 0.00, -0.00, -1.00, 631.6, 240.0)">p</text><text xml:space="preserve" font-family="HelveticaNeue-Bold" font-weight="bold" font-size="80.0" fill="#FEFFFF" transform="matrix(1.00, 0.00, -0.00, -1.00, 677.2, 240.0)">i</text><text xml:space="preserve" font-family="HelveticaNeue-Bold" font-weight="bold" font-size="80.0" fill="#FEFFFF" transform="matrix(1.00, 0.00, -0.00, -1.00, 694.7, 240.0)">s</text><text xml:space="preserve" font-family="HelveticaNeue-Bold" font-weight="bold" font-size="80.0" fill="#FEFFFF" transform="matrix(1.00, 0.00, -0.00, -1.00, 734.4, 240.0)">t</text><text xml:space="preserve" font-family="HelveticaNeue-Bold" font-weight="bold" font-size="80.0" fill="#FEFFFF" transform="matrix(1.00, 0.00, -0.00, -1.00, 759.4, 240.0)">r</text><text xml:space="preserve" font-family="HelveticaNeue-Bold" font-weight="bold" font-size="80.0" fill="#FEFFFF" transform="matrix(1.00, 0.00, -0.00, -1.00, 787.3, 240.0)">a</text><text xml:space="preserve" font-family="HelveticaNeue-Bold" font-weight="bold" font-size="80.0" fill="#FEFFFF" transform="matrix(1.00, 0.00, -0.00, -1.00, 830.0, 240.0)">n</text><text xml:space="preserve" font-family="HelveticaNeue-Bold" font-weight="bold" font-size="80.0" fill="#FEFFFF" transform="matrix(1.00, 0.00, -0.00, -1.00, 874.3, 240.0)">o</text><text xml:space="preserve" font-family="HelveticaNeue-Bold" font-weight="bold" font-size="80.0" fill="#FEFFFF" transform="matrix(1.00, 0.00, -0.00, -1.00, 37.0, 378.0)">c</text><text xml:space="preserve" font-family="HelveticaNeue-Bold" font-weight="bold" font-size="80.0" fill="#FEFFFF" transform="matrix(1.00, 0.00, -0.00, -1.00, 79.7, 378.0)">a</text><text xml:space="preserve" font-family="HelveticaNeue-Bold" font-weight="bold" font-size="80.0" fill="#FEFFFF" transform="matrix(1.00, 0.00, -0.00, -1.00, 122.4, 378.0)">n</text><text xml:space="preserve" font-family="HelveticaNeue-Bold" font-weight="bold" font-size="80.0" fill="#FEFFFF" transform="matrix(1.00, 0.00, -0.00, -1.00, 166.7, 378.0)"> </text><text xml:space="preserve" font-family="HelveticaNeue-Bold" font-weight="bold" font-size="80.0" fill="#FEFFFF" transform="matrix(1.00, 0.00, -0.00, -1.00, 185.7, 378.0)">d</text><text xml:space="preserve" font-family="HelveticaNeue-Bold" font-weight="bold" font-size="80.0" fill="#FEFFFF" transform="matrix(1.00, 0.00, -0.00, -1.00, 231.4, 378.0)">o</text><text xml:space="preserve" font-family="HelveticaNeue-Bold" font-weight="bold" font-size="80.0" fill="#FEFFFF" transform="matrix(1.00, 0.00, -0.00, -1.00, 277.1, 378.0)"> </text><text xml:space="preserve" font-family="HelveticaNeue-Bold" font-weight="bold" font-size="80.0" fill="#FEFFFF" transform="matrix(1.00, 0.00, -0.00, -1.00, 296.1, 378.0)">d</text><text xml:space="preserve" font-family="HelveticaNeue-Bold" font-weight="bold" font-size="80.0" fill="#FEFFFF" transform="matrix(1.00, 0.00, -0.00, -1.00, 341.8, 378.0)">e</text><text xml:space="preserve" font-family="HelveticaNeue-Bold" font-weight="bold" font-size="80.0" fill="#FEFFFF" transform="matrix(1.00, 0.00, -0.00, -1.00, 384.5, 378.0)">c</text><text xml:space="preserve" font-family="HelveticaNeue-Bold" font-weight="bold" font-size="80.0" fill="#FEFFFF" transform="matrix(1.00, 0.00, -0.00, -1.00, 427.2, 378.0)">e</text><text xml:space="preserve" font-family="HelveticaNeue-Bold" font-weight="bold" font-size="80.0" fill="#FEFFFF" transform="matrix(1.00, 0.00, -0.00, -1.00, 470.0, 378.0)">n</text><text xml:space="preserve" font-family="HelveticaNeue-Bold" font-weight="bold" font-size="80.0" fill="#FEFFFF" transform="matrix(1.00, 0.00, -0.00, -1.00, 514.2, 378.0)">t</text><text xml:space="preserve" font-family="HelveticaNeue-Bold" font-weight="bold" font-size="80.0" fill="#FEFFFF" transform="matrix(1.00, 0.00, -0.00, -1.00, 539.2, 378.0)"> </text><text xml:space="preserve" font-family="HelveticaNeue-Bold" font-weight="bold" font-size="80.0" fill="#FEFFFF" transform="matrix(1.00, 0.00, -0.00, -1.00, 558.2, 378.0)">t</text><text xml:space="preserve" font-family="HelveticaNeue-Bold" font-weight="bold" font-size="80.0" fill="#FEFFFF" transform="matrix(1.00, 0.00, -0.00, -1.00, 583.2, 378.0)">d</text><text xml:space="preserve" font-family="HelveticaNeue-Bold" font-weight="bold" font-size="80.0" fill="#FEFFFF" transform="matrix(1.00, 0.00, -0.00, -1.00, 628.8, 378.0)">d</text><text xml:space="preserve" font-family="HelveticaNeue-Bold" font-weight="bold" font-size="80.0" fill="#FEFFFF" transform="matrix(1.00, 0.00, -0.00, -1.00, 50.0, 101.0)">e</text><text xml:space="preserve" font-family="HelveticaNeue-Bold" font-weight="bold" font-size="80.0" fill="#FEFFFF" transform="matrix(1.00, 0.00, -0.00, -1.00, 92.7, 101.0)">n</text><text xml:space="preserve" font-family="HelveticaNeue-Bold" font-weight="bold" font-size="80.0" fill="#FEFFFF" transform="matrix(1.00, 0.00, -0.00, -1.00, 137.0, 101.0)">o</text><text xml:space="preserve" font-family="HelveticaNeue-Bold" font-weight="bold" font-size="80.0" fill="#FEFFFF" transform="matrix(1.00, 0.00, -0.00, -1.00, 182.6, 101.0)">u</text><text xml:space="preserve" font-family="HelveticaNeue-Bold" font-weight="bold" font-size="80.0" fill="#FEFFFF" transform="matrix(1.00, 0.00, -0.00, -1.00, 226.9, 101.0)">g</text><text xml:space="preserve" font-family="HelveticaNeue-Bold" font-weight="bold" font-size="80.0" fill="#FEFFFF" transform="matrix(1.00, 0.00, -0.00, -1.00, 272.6, 101.0)">h</text><text xml:space="preserve" font-family="HelveticaNeue-Bold" font-weight="bold" font-size="80.0" fill="#FEFFFF" transform="matrix(1.00, 0.00, -0.00, -1.00, 316.8, 101.0)"> </text><text xml:space="preserve" font-family="HelveticaNeue-Bold" font-weight="bold" font-size="80.0" fill="#FEFFFF" transform="matrix(1.00, 0.00, -0.00, -1.00, 335.8, 101.0)">j</text><text xml:space="preserve" font-family="HelveticaNeue-Bold" font-weight="bold" font-size="80.0" fill="#FEFFFF" transform="matrix(1.00, 0.00, -0.00, -1.00, 354.9, 101.0)">q</text><text xml:space="preserve" font-family="HelveticaNeue-Bold" font-weight="bold" font-size="80.0" fill="#FEFFFF" transform="matrix(1.00, 0.00, -0.00, -1.00, 400.6, 101.0)">u</text><text xml:space="preserve" font-family="HelveticaNeue-Bold" font-weight="bold" font-size="80.0" fill="#FEFFFF" transform="matrix(1.00, 0.00, -0.00, -1.00, 444.8, 101.0)">e</text><text xml:space="preserve" font-family="HelveticaNeue-Bold" font-weight="bold" font-size="80.0" fill="#FEFFFF" transform="matrix(1.00, 0.00, -0.00, -1.00, 487.5, 101.0)">r</text><text xml:space="preserve" font-family="HelveticaNeue-Bold" font-weight="bold" font-size="80.0" fill="#FEFFFF" transform="matrix(1.00, 0.00, -0.00, -1.00, 515.4, 101.0)">y</text><text xml:space="preserve" font-family="HelveticaNeue-Bold" font-weight="bold" font-size="80.0" fill="#FEFFFF" transform="matrix(1.00, 0.00, -0.00, -1.00, 553.8, 101.0)"> </text><text xml:space="preserve" font-family="HelveticaNeue-Bold" font-weight="bold" font-size="80.0" fill="#FEFFFF" transform="matrix(1.00, 0.00, -0.00, -1.00, 572.8, 101.0)">t</text><text xml:space="preserve" font-family="HelveticaNeue-Bold" font-weight="bold" font-size="80.0" fill="#FEFFFF" transform="matrix(1.00, 0.00, -0.00, -1.00, 597.8, 101.0)">o</text><text xml:space="preserve" font-family="HelveticaNeue-Bold" font-weight="bold" font-size="80.0" fill="#FEFFFF" transform="matrix(1.00, 0.00, -0.00, -1.00, 643.4, 101.0)"> </text><text xml:space="preserve" font-family="HelveticaNeue-Bold" font-weight="bold" font-size="80.0" fill="#FEFFFF" transform="matrix(1.00, 0.00, -0.00, -1.00, 662.5, 101.0)">s</text><text xml:space="preserve" font-family="HelveticaNeue-Bold" font-weight="bold" font-size="80.0" fill="#FEFFFF" transform="matrix(1.00, 0.00, -0.00, -1.00, 702.2, 101.0)">u</text><text xml:space="preserve" font-family="HelveticaNeue-Bold" font-weight="bold" font-size="80.0" fill="#FEFFFF" transform="matrix(1.00, 0.00, -0.00, -1.00, 746.5, 101.0)">r</text><text xml:space="preserve" font-family="HelveticaNeue-Bold" font-weight="bold" font-size="80.0" fill="#FEFFFF" transform="matrix(1.00, 0.00, -0.00, -1.00, 774.4, 101.0)">v</text><text xml:space="preserve" font-family="HelveticaNeue-Bold" font-weight="bold" font-size="80.0" fill="#FEFFFF" transform="matrix(1.00, 0.00, -0.00, -1.00, 812.8, 101.0)">i</text><text xml:space="preserve" font-family="HelveticaNeue-Bold" font-weight="bold" font-size="80.0" fill="#FEFFFF" transform="matrix(1.00, 0.00, -0.00, -1.00, 830.2, 101.0)">v</text><text xml:space="preserve" font-family="HelveticaNeue-Bold" font-weight="bold" font-size="80.0" fill="#FEFFFF" transform="matrix(1.00, 0.00, -0.00, -1.00, 868.6, 101.0)">e</text></g></svg>