<?xml version="1.0" encoding="UTF-8" standalone="no"?><svg xmlns="http://www.w3.org/2000/svg" xmlns:xlink="http://www.w3.org/1999/xlink" clip-rule="evenodd" stroke-miterlimit="4.00" viewBox="0 0 218 61"><desc>SVG generated by Keynote</desc><defs></defs><g transform="matrix(1.00, 0.00, -0.00, -1.00, 0.0, 61.0)"><text xml:space="preserve" font-family="Yearsupplyoffairycakes" font-size="38.0" fill="#FEFFFF" transform="matrix(1.00, 0.08, 0.08, -1.00, 3.7, 9.1)">c</text><text xml:space="preserve" font-family="Yearsupplyoffairycakes" font-size="38.0" fill="#FEFFFF" transform="matrix(1.00, 0.08, 0.08, -1.00, 26.6, 11.0)">a</text><text xml:space="preserve" font-family="Yearsupplyoffairycakes" font-size="38.0" fill="#FEFFFF" transform="matrix(1.00, 0.08, 0.08, -1.00, 50.9, 13.0)">n</text><text xml:space="preserve" font-family="Yearsupplyoffairycakes" font-size="38.0" fill="#FEFFFF" transform="matrix(1.00, 0.08, 0.08, -1.00, 84.9, 15.9)"> </text><text xml:space="preserve" font-family="Yearsupplyoffairycakes" font-size="38.0" fill="#FEFFFF" transform="matrix(1.00, 0.08, 0.08, -1.00, 103.8, 17.5)">a</text><text xml:space="preserve" font-family="Yearsupplyoffairycakes" font-size="38.0" fill="#FEFFFF" transform="matrix(1.00, 0.08, 0.08, -1.00, 128.1, 19.5)">v</text><text xml:space="preserve" font-family="Yearsupplyoffairycakes" font-size="38.0" fill="#FEFFFF" transform="matrix(1.00, 0.08, 0.08, -1.00, 153.5, 21.7)">o</text><text xml:space="preserve" font-family="Yearsupplyoffairycakes" font-size="38.0" fill="#FEFFFF" transform="matrix(1.00, 0.08, 0.08, -1.00, 175.4, 23.5)">i</text><text xml:space="preserve" font-family="Yearsupplyoffairycakes" font-size="38.0" fill="#FEFFFF" transform="matrix(1.00, 0.08, 0.08, -1.00, 189.3, 24.7)">d</text></g></svg>