<?xml version="1.0" encoding="UTF-8" standalone="no"?><svg xmlns="http://www.w3.org/2000/svg" xmlns:xlink="http://www.w3.org/1999/xlink" clip-rule="evenodd" stroke-miterlimit="4.00" viewBox="0 0 784 38"><desc>SVG generated by Keynote</desc><defs></defs><g transform="matrix(1.00, 0.00, -0.00, -1.00, 0.0, 38.0)"><text xml:space="preserve" font-family="HelveticaNeue-Thin" font-size="38.0" fill="#FEFFFF" transform="matrix(1.00, 0.00, -0.00, -1.00, -1.0, 9.0)">“</text><text xml:space="preserve" font-family="HelveticaNeue-Thin" font-size="38.0" fill="#FEFFFF" transform="matrix(1.00, 0.00, -0.00, -1.00, 11.0, 9.0)">n</text><text xml:space="preserve" font-family="HelveticaNeue-Thin" font-size="38.0" fill="#FEFFFF" transform="matrix(1.00, 0.00, -0.00, -1.00, 30.7, 9.0)">o</text><text xml:space="preserve" font-family="HelveticaNeue-Thin" font-size="38.0" fill="#FEFFFF" transform="matrix(1.00, 0.00, -0.00, -1.00, 51.1, 9.0)"> </text><text xml:space="preserve" font-family="HelveticaNeue-Thin" font-size="38.0" fill="#FEFFFF" transform="matrix(1.00, 0.00, -0.00, -1.00, 61.7, 9.0)">o</text><text xml:space="preserve" font-family="HelveticaNeue-Thin" font-size="38.0" fill="#FEFFFF" transform="matrix(1.00, 0.00, -0.00, -1.00, 82.1, 9.0)">n</text><text xml:space="preserve" font-family="HelveticaNeue-Thin" font-size="38.0" fill="#FEFFFF" transform="matrix(1.00, 0.00, -0.00, -1.00, 101.8, 9.0)">e</text><text xml:space="preserve" font-family="HelveticaNeue-Thin" font-size="38.0" fill="#FEFFFF" transform="matrix(1.00, 0.00, -0.00, -1.00, 121.5, 9.0)"> </text><text xml:space="preserve" font-family="HelveticaNeue-Thin" font-size="38.0" fill="#FEFFFF" transform="matrix(1.00, 0.00, -0.00, -1.00, 132.1, 9.0)">w</text><text xml:space="preserve" font-family="HelveticaNeue-Thin" font-size="38.0" fill="#FEFFFF" transform="matrix(1.00, 0.00, -0.00, -1.00, 158.8, 9.0)">a</text><text xml:space="preserve" font-family="HelveticaNeue-Thin" font-size="38.0" fill="#FEFFFF" transform="matrix(1.00, 0.00, -0.00, -1.00, 177.8, 9.0)">n</text><text xml:space="preserve" font-family="HelveticaNeue-Thin" font-size="38.0" fill="#FEFFFF" transform="matrix(1.00, 0.00, -0.00, -1.00, 197.6, 9.0)">t</text><text xml:space="preserve" font-family="HelveticaNeue-Thin" font-size="38.0" fill="#FEFFFF" transform="matrix(1.00, 0.00, -0.00, -1.00, 207.4, 9.0)">s</text><text xml:space="preserve" font-family="HelveticaNeue-Thin" font-size="38.0" fill="#FEFFFF" transform="matrix(1.00, 0.00, -0.00, -1.00, 225.7, 9.0)"> </text><text xml:space="preserve" font-family="HelveticaNeue-Thin" font-size="38.0" fill="#FEFFFF" transform="matrix(1.00, 0.00, -0.00, -1.00, 236.2, 9.0)">t</text><text xml:space="preserve" font-family="HelveticaNeue-Thin" font-size="38.0" fill="#FEFFFF" transform="matrix(1.00, 0.00, -0.00, -1.00, 245.5, 9.0)">o</text><text xml:space="preserve" font-family="HelveticaNeue-Thin" font-size="38.0" fill="#FEFFFF" transform="matrix(1.00, 0.00, -0.00, -1.00, 265.9, 9.0)"> </text><text xml:space="preserve" font-family="HelveticaNeue-Thin" font-size="38.0" fill="#FEFFFF" transform="matrix(1.00, 0.00, -0.00, -1.00, 276.5, 9.0)">p</text><text xml:space="preserve" font-family="HelveticaNeue-Thin" font-size="38.0" fill="#FEFFFF" transform="matrix(1.00, 0.00, -0.00, -1.00, 297.6, 9.0)">r</text><text xml:space="preserve" font-family="HelveticaNeue-Thin" font-size="38.0" fill="#FEFFFF" transform="matrix(1.00, 0.00, -0.00, -1.00, 307.8, 9.0)">o</text><text xml:space="preserve" font-family="HelveticaNeue-Thin" font-size="38.0" fill="#FEFFFF" transform="matrix(1.00, 0.00, -0.00, -1.00, 328.2, 9.0)">g</text><text xml:space="preserve" font-family="HelveticaNeue-Thin" font-size="38.0" fill="#FEFFFF" transform="matrix(1.00, 0.00, -0.00, -1.00, 348.6, 9.0)">r</text><text xml:space="preserve" font-family="HelveticaNeue-Thin" font-size="38.0" fill="#FEFFFF" transform="matrix(1.00, 0.00, -0.00, -1.00, 358.4, 9.0)">a</text><text xml:space="preserve" font-family="HelveticaNeue-Thin" font-size="38.0" fill="#FEFFFF" transform="matrix(1.00, 0.00, -0.00, -1.00, 377.4, 9.0)">m</text><text xml:space="preserve" font-family="HelveticaNeue-Thin" font-size="38.0" fill="#FEFFFF" transform="matrix(1.00, 0.00, -0.00, -1.00, 407.6, 9.0)"> </text><text xml:space="preserve" font-family="HelveticaNeue-Thin" font-size="38.0" fill="#FEFFFF" transform="matrix(1.00, 0.00, -0.00, -1.00, 418.2, 9.0)">i</text><text xml:space="preserve" font-family="HelveticaNeue-Thin" font-size="38.0" fill="#FEFFFF" transform="matrix(1.00, 0.00, -0.00, -1.00, 424.6, 9.0)">n</text><text xml:space="preserve" font-family="HelveticaNeue-Thin" font-size="38.0" fill="#FEFFFF" transform="matrix(1.00, 0.00, -0.00, -1.00, 444.3, 9.0)"> </text><text xml:space="preserve" font-family="HelveticaNeue-Thin" font-size="38.0" fill="#FEFFFF" transform="matrix(1.00, 0.00, -0.00, -1.00, 454.8, 9.0)">a</text><text xml:space="preserve" font-family="HelveticaNeue-Thin" font-size="38.0" fill="#FEFFFF" transform="matrix(1.00, 0.00, -0.00, -1.00, 473.8, 9.0)">s</text><text xml:space="preserve" font-family="HelveticaNeue-Thin" font-size="38.0" fill="#FEFFFF" transform="matrix(1.00, 0.00, -0.00, -1.00, 492.1, 9.0)">s</text><text xml:space="preserve" font-family="HelveticaNeue-Thin" font-size="38.0" fill="#FEFFFF" transform="matrix(1.00, 0.00, -0.00, -1.00, 510.4, 9.0)">e</text><text xml:space="preserve" font-family="HelveticaNeue-Thin" font-size="38.0" fill="#FEFFFF" transform="matrix(1.00, 0.00, -0.00, -1.00, 530.1, 9.0)">m</text><text xml:space="preserve" font-family="HelveticaNeue-Thin" font-size="38.0" fill="#FEFFFF" transform="matrix(1.00, 0.00, -0.00, -1.00, 560.4, 9.0)">b</text><text xml:space="preserve" font-family="HelveticaNeue-Thin" font-size="38.0" fill="#FEFFFF" transform="matrix(1.00, 0.00, -0.00, -1.00, 581.5, 9.0)">l</text><text xml:space="preserve" font-family="HelveticaNeue-Thin" font-size="38.0" fill="#FEFFFF" transform="matrix(1.00, 0.00, -0.00, -1.00, 587.9, 9.0)">e</text><text xml:space="preserve" font-family="HelveticaNeue-Thin" font-size="38.0" fill="#FEFFFF" transform="matrix(1.00, 0.00, -0.00, -1.00, 607.6, 9.0)">r</text><text xml:space="preserve" font-family="HelveticaNeue-Thin" font-size="38.0" fill="#FEFFFF" transform="matrix(1.00, 0.00, -0.00, -1.00, 618.2, 9.0)"> </text><text xml:space="preserve" font-family="HelveticaNeue-Thin" font-size="38.0" fill="#FEFFFF" transform="matrix(1.00, 0.00, -0.00, -1.00, 628.7, 9.0)">a</text><text xml:space="preserve" font-family="HelveticaNeue-Thin" font-size="38.0" fill="#FEFFFF" transform="matrix(1.00, 0.00, -0.00, -1.00, 647.7, 9.0)">n</text><text xml:space="preserve" font-family="HelveticaNeue-Thin" font-size="38.0" fill="#FEFFFF" transform="matrix(1.00, 0.00, -0.00, -1.00, 667.5, 9.0)">y</text><text xml:space="preserve" font-family="HelveticaNeue-Thin" font-size="38.0" fill="#FEFFFF" transform="matrix(1.00, 0.00, -0.00, -1.00, 684.3, 9.0)">m</text><text xml:space="preserve" font-family="HelveticaNeue-Thin" font-size="38.0" fill="#FEFFFF" transform="matrix(1.00, 0.00, -0.00, -1.00, 714.6, 9.0)">o</text><text xml:space="preserve" font-family="HelveticaNeue-Thin" font-size="38.0" fill="#FEFFFF" transform="matrix(1.00, 0.00, -0.00, -1.00, 735.0, 9.0)">r</text><text xml:space="preserve" font-family="HelveticaNeue-Thin" font-size="38.0" fill="#FEFFFF" transform="matrix(1.00, 0.00, -0.00, -1.00, 745.1, 9.0)">e</text><text xml:space="preserve" font-family="HelveticaNeue-Thin" font-size="38.0" fill="#FEFFFF" transform="matrix(1.00, 0.00, -0.00, -1.00, 764.8, 9.0)">.</text><text xml:space="preserve" font-family="HelveticaNeue-Thin" font-size="38.0" fill="#FEFFFF" transform="matrix(1.00, 0.00, -0.00, -1.00, 772.6, 9.0)">”</text></g></svg>